<svg id="svg" version="1.1" xmlns="http://www.w3.org/2000/svg" xmlns:xlink="http://www.w3.org/1999/xlink" width="400" height="289.3464637421665" viewBox="0, 0, 400,289.3464637421665"><g id="svgg"><path id="path0" d="M102.629 32.923 C 102.534 33.019,102.459 83.389,102.462 144.857 L 102.469 256.617 104.635 256.686 C 106.426 256.743,106.802 256.677,106.802 256.308 C 106.802 256.031,107.062 255.861,107.489 255.861 C 108.025 255.861,108.216 255.665,108.354 254.974 C 108.452 254.485,108.652 254.161,108.800 254.252 C 108.947 254.343,109.134 254.254,109.214 254.054 C 109.331 253.765,109.366 253.765,109.384 254.052 C 109.424 254.683,110.568 254.454,110.829 253.763 C 110.965 253.404,111.035 253.041,110.985 252.955 C 110.935 252.869,111.359 252.853,111.928 252.919 C 112.906 253.033,112.954 253.000,112.818 252.288 C 112.739 251.875,112.780 251.602,112.908 251.682 C 113.513 252.055,114.668 251.438,114.548 250.806 C 114.477 250.438,114.571 250.169,114.771 250.169 C 114.963 250.169,115.054 250.404,114.977 250.699 C 114.896 251.010,114.992 251.230,115.210 251.230 C 115.414 251.230,115.501 251.149,115.402 251.051 C 115.067 250.716,116.108 249.983,117.022 249.911 C 117.568 249.868,118.094 249.597,118.336 249.232 C 118.558 248.898,118.984 248.625,119.283 248.625 C 119.582 248.625,119.826 248.487,119.826 248.319 C 119.826 248.150,119.664 248.110,119.465 248.230 C 119.219 248.377,119.230 248.290,119.500 247.957 C 119.992 247.351,120.445 247.316,120.220 247.902 C 120.129 248.140,120.198 248.336,120.374 248.336 C 120.550 248.336,120.695 248.157,120.695 247.938 C 120.695 247.434,122.383 246.599,122.956 246.819 C 123.296 246.949,123.346 246.823,123.193 246.213 C 123.037 245.594,123.101 245.442,123.511 245.446 C 123.948 245.450,123.959 245.492,123.589 245.731 C 123.350 245.885,123.293 246.013,123.462 246.016 C 123.631 246.018,124.047 245.761,124.387 245.444 C 124.748 245.108,125.079 244.988,125.183 245.155 C 125.446 245.580,125.904 245.502,125.904 245.031 C 125.904 244.806,126.286 244.453,126.752 244.246 C 127.218 244.040,127.536 243.769,127.458 243.643 C 127.381 243.518,127.528 243.415,127.786 243.415 C 128.043 243.415,128.174 243.546,128.075 243.705 C 127.977 243.864,128.003 243.994,128.132 243.994 C 128.262 243.994,128.531 243.626,128.730 243.176 C 129.041 242.475,129.222 242.377,130.005 242.492 C 130.799 242.609,130.891 242.557,130.711 242.089 C 130.598 241.793,130.589 241.636,130.692 241.739 C 130.795 241.842,131.268 241.690,131.743 241.401 C 132.218 241.113,132.839 240.937,133.123 241.011 C 133.612 241.139,134.152 240.251,134.024 239.531 C 133.997 239.385,134.172 239.428,134.413 239.628 C 134.961 240.082,135.941 239.790,136.335 239.054 C 136.505 238.736,136.938 238.495,137.341 238.495 C 137.775 238.495,138.230 238.216,138.522 237.771 C 138.782 237.373,139.209 237.046,139.469 237.043 C 139.788 237.040,139.832 236.969,139.602 236.823 C 139.376 236.679,139.503 236.493,139.985 236.266 C 140.609 235.971,140.660 235.982,140.356 236.348 C 140.163 236.582,140.098 236.866,140.213 236.981 C 140.453 237.221,142.126 235.277,141.939 234.974 C 141.870 234.863,141.966 234.678,142.153 234.563 C 142.339 234.448,142.415 234.477,142.321 234.629 C 142.228 234.781,142.269 235.094,142.413 235.325 C 142.715 235.809,143.761 235.323,143.632 234.759 C 143.593 234.585,143.686 234.443,143.840 234.443 C 143.995 234.443,144.081 234.280,144.033 234.081 C 143.984 233.882,143.999 233.817,144.066 233.936 C 144.506 234.724,146.456 233.895,146.307 232.983 C 146.252 232.648,146.495 232.540,147.283 232.549 C 147.895 232.556,148.333 232.421,148.334 232.224 C 148.335 232.038,148.454 231.778,148.599 231.645 C 148.752 231.505,148.775 231.555,148.655 231.766 C 148.540 231.965,148.584 232.127,148.753 232.127 C 148.921 232.127,149.059 231.879,149.059 231.576 C 149.059 231.152,149.205 231.062,149.687 231.188 C 150.174 231.315,150.275 231.250,150.139 230.895 C 150.039 230.633,150.141 230.371,150.380 230.279 C 150.609 230.191,150.796 230.246,150.796 230.400 C 150.796 230.848,151.586 230.723,151.769 230.246 C 151.861 230.007,152.135 229.812,152.379 229.812 C 152.623 229.812,152.822 229.647,152.822 229.446 C 152.822 229.040,154.836 228.075,155.685 228.075 C 155.983 228.075,156.295 227.818,156.377 227.504 C 156.484 227.095,156.873 226.878,157.752 226.738 C 158.611 226.600,159.020 226.378,159.121 225.991 C 159.206 225.664,159.618 225.370,160.134 225.267 C 160.623 225.169,161.062 224.868,161.138 224.579 C 161.226 224.243,161.671 223.997,162.422 223.870 C 163.089 223.757,163.648 223.476,163.754 223.198 C 164.083 222.335,164.477 222.122,165.530 222.240 C 166.102 222.304,166.472 222.253,166.352 222.128 C 165.975 221.732,167.059 220.839,167.918 220.839 C 168.370 220.839,168.726 220.742,168.707 220.622 C 168.596 219.918,168.866 219.668,169.921 219.500 C 170.800 219.359,171.168 219.136,171.361 218.628 C 171.555 218.120,171.843 217.945,172.490 217.945 C 173.097 217.945,173.501 217.727,173.833 217.221 C 174.201 216.659,174.553 216.498,175.411 216.498 C 176.336 216.498,176.530 216.392,176.608 215.847 C 176.679 215.348,176.938 215.161,177.713 215.050 C 178.505 214.937,178.723 214.774,178.709 214.307 C 178.695 213.811,178.889 213.699,179.856 213.641 C 181.198 213.562,181.860 213.127,181.681 212.441 C 181.585 212.077,181.712 211.992,182.205 212.087 C 182.563 212.155,182.944 212.068,183.051 211.894 C 183.159 211.720,183.486 211.577,183.778 211.577 C 184.070 211.577,184.384 211.382,184.475 211.143 C 184.567 210.904,184.855 210.709,185.116 210.709 C 185.406 210.709,185.529 210.550,185.433 210.299 C 185.346 210.073,185.456 209.819,185.676 209.735 C 185.939 209.634,186.022 209.726,185.917 210.000 C 185.817 210.259,185.934 210.420,186.221 210.420 C 186.522 210.420,186.686 210.168,186.686 209.705 C 186.686 209.212,186.811 209.039,187.091 209.146 C 187.313 209.231,187.777 208.999,188.121 208.630 C 188.571 208.148,188.693 208.102,188.554 208.466 C 188.419 208.819,188.502 208.973,188.826 208.973 C 189.082 208.973,189.291 208.793,189.291 208.574 C 189.291 208.354,189.489 208.010,189.732 207.809 C 189.986 207.598,190.109 207.185,190.024 206.833 C 189.942 206.498,189.953 206.394,190.047 206.602 C 190.185 206.906,190.317 206.893,190.707 206.540 C 191.149 206.141,191.199 206.151,191.237 206.650 C 191.260 206.953,191.059 207.265,190.791 207.343 C 190.523 207.421,190.695 207.461,191.172 207.433 C 191.660 207.403,192.041 207.217,192.041 207.008 C 192.041 206.505,192.752 206.089,193.632 206.078 C 194.207 206.071,194.266 206.011,193.922 205.789 C 193.556 205.552,193.572 205.507,194.025 205.504 C 194.350 205.501,194.505 205.348,194.416 205.118 C 194.322 204.872,194.491 204.743,194.892 204.756 C 195.284 204.768,195.481 204.624,195.425 204.365 C 195.353 204.031,195.418 204.022,195.773 204.316 C 196.013 204.516,196.444 204.623,196.730 204.554 C 197.173 204.448,197.143 204.379,196.527 204.088 C 195.900 203.792,195.888 203.763,196.436 203.867 C 196.802 203.937,197.133 203.819,197.223 203.586 C 197.313 203.351,197.789 203.184,198.368 203.184 C 199.426 203.184,199.899 202.622,199.326 202.044 C 199.066 201.782,199.098 201.745,199.464 201.884 C 199.727 201.984,200.028 201.926,200.133 201.755 C 200.239 201.585,200.643 201.525,201.031 201.622 C 201.703 201.791,201.906 201.428,201.788 200.270 C 201.779 200.179,202.136 200.159,202.582 200.224 C 203.424 200.348,204.098 199.322,203.370 199.024 C 203.188 198.949,203.517 198.878,204.100 198.865 C 204.684 198.853,205.227 198.679,205.308 198.480 C 205.424 198.191,205.458 198.191,205.476 198.480 C 205.516 199.105,206.078 198.873,206.078 198.232 C 206.078 197.800,205.947 197.673,205.629 197.795 C 205.382 197.890,205.256 197.844,205.349 197.694 C 205.442 197.543,205.872 197.423,206.305 197.426 C 208.208 197.442,208.760 197.309,208.892 196.805 C 208.966 196.520,209.373 196.200,209.796 196.094 C 210.675 195.873,211.640 194.960,211.343 194.630 C 211.233 194.508,211.314 194.506,211.523 194.627 C 212.027 194.918,213.603 194.248,213.603 193.742 C 213.603 193.523,213.866 193.343,214.186 193.343 C 215.121 193.343,215.853 192.739,215.732 192.068 C 215.672 191.734,215.700 191.623,215.794 191.819 C 215.926 192.096,216.152 192.079,216.796 191.747 C 217.253 191.510,217.775 191.317,217.957 191.317 C 218.138 191.317,218.523 191.025,218.812 190.668 C 219.101 190.311,219.513 190.005,219.727 189.988 C 219.941 189.972,220.344 189.938,220.622 189.914 C 220.901 189.890,221.129 189.690,221.129 189.469 C 221.129 189.249,221.402 188.997,221.737 188.910 C 222.137 188.805,222.271 188.621,222.128 188.370 C 221.955 188.063,221.989 188.059,222.302 188.350 C 222.922 188.926,223.148 188.790,223.742 187.482 C 224.049 186.805,224.303 186.480,224.306 186.758 C 224.317 187.593,225.716 187.419,226.049 186.541 C 226.273 185.953,226.521 185.818,227.372 185.818 C 228.184 185.818,228.454 185.685,228.574 185.224 C 228.713 184.694,230.079 184.120,230.753 184.309 C 230.872 184.343,230.970 184.180,230.970 183.947 C 230.970 183.417,231.859 182.923,232.815 182.923 C 233.214 182.923,233.621 182.793,233.719 182.634 C 233.818 182.475,233.735 182.344,233.536 182.344 C 233.337 182.344,233.427 182.153,233.736 181.919 C 234.045 181.686,234.725 181.490,235.246 181.485 C 235.986 181.478,236.254 181.318,236.469 180.753 C 236.731 180.064,237.138 179.898,238.278 180.014 C 238.583 180.045,238.897 179.770,239.067 179.324 C 239.296 178.721,239.541 178.582,240.369 178.582 C 241.342 178.582,241.946 177.758,241.027 177.685 C 240.394 177.634,242.076 177.193,243.017 177.163 C 243.902 177.135,244.432 176.244,244.366 174.895 C 244.357 174.697,244.473 174.613,244.625 174.707 C 244.778 174.801,244.832 175.060,244.747 175.283 C 244.561 175.765,245.595 175.852,245.888 175.378 C 245.993 175.208,246.261 175.139,246.484 175.224 C 246.742 175.324,246.889 175.183,246.889 174.835 C 246.889 174.426,247.175 174.243,248.046 174.096 C 248.922 173.948,249.204 173.766,249.204 173.350 C 249.204 172.931,249.483 172.755,250.378 172.612 C 251.157 172.488,251.504 172.301,251.410 172.057 C 251.254 171.650,252.530 171.021,253.650 170.954 C 254.039 170.931,254.314 170.840,254.260 170.753 C 254.002 170.334,254.741 169.839,255.847 169.690 C 257.040 169.530,257.070 169.500,256.902 168.627 C 256.808 168.132,256.828 167.871,256.947 168.045 C 257.324 168.597,259.334 168.184,259.334 167.555 C 259.334 167.144,259.618 166.966,260.498 166.825 C 261.609 166.648,262.393 166.147,261.595 166.126 C 260.911 166.107,262.645 165.288,263.390 165.278 C 263.861 165.271,264.218 165.038,264.403 164.616 C 264.612 164.140,264.977 163.941,265.759 163.876 C 266.522 163.813,266.785 163.674,266.677 163.392 C 266.505 162.945,267.398 162.373,268.268 162.373 C 268.592 162.373,268.927 162.119,269.030 161.795 C 269.131 161.476,269.343 161.216,269.501 161.216 C 269.659 161.216,269.724 161.113,269.647 160.987 C 269.569 160.861,269.968 160.812,270.534 160.878 C 271.310 160.968,271.530 160.901,271.431 160.603 C 271.255 160.076,271.886 159.479,272.619 159.479 C 273.006 159.479,273.155 159.339,273.054 159.074 C 272.968 158.851,273.046 158.578,273.227 158.466 C 273.433 158.339,273.521 158.451,273.464 158.769 C 273.413 159.047,273.525 159.328,273.711 159.393 C 273.898 159.459,274.093 159.212,274.146 158.844 C 274.221 158.313,274.465 158.147,275.335 158.032 C 275.937 157.952,276.417 157.780,276.402 157.648 C 276.350 157.213,277.608 156.328,278.042 156.495 C 278.300 156.594,278.763 156.303,279.213 155.759 C 279.623 155.264,280.072 154.930,280.211 155.016 C 280.350 155.101,280.463 155.052,280.463 154.905 C 280.463 154.759,280.789 154.701,281.187 154.777 C 281.730 154.881,281.910 154.792,281.910 154.421 C 281.910 154.148,282.169 153.858,282.486 153.775 C 282.802 153.692,283.005 153.533,282.935 153.420 C 282.866 153.308,283.175 153.270,283.621 153.335 C 284.257 153.429,284.468 153.323,284.592 152.849 C 284.679 152.516,284.625 152.243,284.471 152.243 C 284.317 152.243,284.264 152.126,284.353 151.982 C 284.441 151.839,285.068 151.779,285.745 151.849 C 286.813 151.960,287.014 151.890,287.265 151.314 C 287.464 150.859,287.844 150.623,288.478 150.562 C 289.162 150.496,289.494 150.266,289.754 149.677 C 290.046 149.017,290.265 148.895,291.043 148.956 C 291.761 149.013,292.015 148.900,292.126 148.474 C 292.228 148.084,292.629 147.861,293.469 147.726 C 294.174 147.613,294.780 147.323,294.943 147.018 C 295.095 146.734,295.602 146.417,296.070 146.315 C 297.416 146.019,297.700 145.017,297.284 142.018 C 297.265 141.887,296.758 141.815,296.157 141.858 C 294.910 141.948,294.067 141.602,294.652 141.241 C 294.848 141.119,294.920 140.875,294.810 140.698 C 294.546 140.271,292.988 140.284,292.844 140.714 C 292.782 140.900,292.498 140.560,292.212 139.958 C 291.721 138.922,291.635 138.872,290.636 139.032 C 289.939 139.145,289.725 139.112,290.006 138.936 C 290.371 138.709,290.361 138.643,289.934 138.480 C 289.660 138.374,289.436 138.107,289.436 137.885 C 289.436 137.632,289.120 137.482,288.588 137.482 C 288.019 137.482,287.545 137.233,287.145 136.724 C 286.745 136.216,286.362 136.014,285.985 136.113 C 285.319 136.287,284.226 135.600,284.226 135.009 C 284.226 134.747,283.785 134.524,283.030 134.403 C 282.210 134.272,281.789 134.043,281.693 133.676 C 281.616 133.381,281.365 133.140,281.136 133.140 C 280.894 133.140,280.805 133.281,280.925 133.475 C 281.054 133.683,281.004 133.730,280.793 133.599 C 280.606 133.484,280.529 133.269,280.620 133.120 C 280.712 132.972,280.450 132.851,280.039 132.851 C 279.507 132.851,279.211 132.641,279.016 132.127 C 278.805 131.574,278.533 131.404,277.858 131.404 C 277.173 131.404,276.911 131.235,276.689 130.649 C 276.441 129.998,276.264 129.910,275.401 130.011 C 274.519 130.114,274.367 130.032,274.118 129.319 C 273.808 128.428,273.541 128.326,272.953 128.871 C 272.638 129.164,272.608 129.156,272.794 128.829 C 272.972 128.516,272.855 128.458,272.271 128.569 C 271.858 128.648,271.528 128.635,271.539 128.539 C 271.661 127.480,271.436 127.062,270.747 127.062 C 270.124 127.062,270.029 127.167,270.158 127.713 C 270.261 128.154,270.203 128.107,269.977 127.569 C 269.793 127.131,269.466 126.773,269.251 126.773 C 269.036 126.773,268.899 126.550,268.945 126.277 C 268.998 125.967,268.813 125.745,268.452 125.687 C 266.945 125.442,266.629 125.291,266.487 124.750 C 266.394 124.394,266.093 124.168,265.710 124.168 C 264.768 124.168,263.963 123.642,264.152 123.150 C 264.277 122.823,264.084 122.720,263.345 122.716 C 262.234 122.711,261.831 122.499,261.565 121.780 C 261.463 121.501,261.114 121.257,260.791 121.237 C 260.467 121.217,260.072 121.169,259.913 121.129 C 259.754 121.089,259.509 121.040,259.368 121.020 C 259.227 121.000,259.040 120.706,258.951 120.367 C 258.832 119.913,258.632 119.791,258.194 119.906 C 257.866 119.991,257.598 119.959,257.598 119.833 C 257.598 119.707,257.337 119.536,257.018 119.453 C 256.616 119.348,256.495 119.151,256.624 118.815 C 256.762 118.455,256.669 118.347,256.263 118.399 C 255.489 118.499,254.054 117.859,254.270 117.509 C 254.549 117.058,253.534 116.800,252.939 117.172 C 252.518 117.435,252.440 117.422,252.560 117.111 C 252.648 116.880,252.464 116.654,252.115 116.563 C 251.787 116.477,251.520 116.208,251.520 115.964 C 251.520 115.699,251.287 115.538,250.941 115.564 C 250.622 115.588,250.362 115.715,250.362 115.846 C 250.362 115.977,249.975 115.688,249.503 115.205 C 249.031 114.722,248.521 114.327,248.370 114.327 C 248.218 114.327,248.036 114.164,247.964 113.965 C 247.860 113.679,247.697 113.684,247.186 113.987 C 246.830 114.197,246.623 114.234,246.726 114.067 C 246.828 113.901,246.697 113.435,246.433 113.033 C 245.917 112.245,244.434 111.998,244.210 112.663 C 244.143 112.862,244.076 112.588,244.060 112.054 C 244.027 110.935,243.777 110.558,243.436 111.110 C 243.267 111.384,243.140 111.401,242.997 111.169 C 242.887 110.991,242.670 110.923,242.514 111.019 C 242.125 111.259,241.389 110.599,241.389 110.009 C 241.389 109.655,241.098 109.507,240.304 109.457 C 239.536 109.408,239.063 109.179,238.688 108.674 C 238.350 108.219,237.871 107.959,237.368 107.959 C 236.935 107.959,236.327 107.754,236.018 107.504 C 235.709 107.253,235.619 107.131,235.818 107.232 C 236.017 107.332,236.179 107.291,236.179 107.140 C 236.179 106.709,234.674 106.428,234.435 106.814 C 234.304 107.026,234.086 106.830,233.844 106.283 C 233.593 105.715,233.314 105.473,233.036 105.579 C 232.762 105.685,232.685 105.622,232.821 105.404 C 232.958 105.181,232.793 105.065,232.341 105.065 C 231.963 105.065,231.370 104.740,231.024 104.342 C 230.673 103.938,230.081 103.618,229.686 103.618 C 229.297 103.618,228.896 103.486,228.796 103.324 C 228.696 103.162,228.460 103.122,228.272 103.235 C 228.070 103.356,228.090 103.242,228.321 102.958 C 228.671 102.527,228.584 102.456,227.487 102.280 C 226.662 102.149,226.218 101.916,226.127 101.569 C 226.053 101.285,225.803 100.980,225.571 100.892 C 225.292 100.784,225.223 100.851,225.366 101.089 C 225.511 101.329,225.422 101.318,225.095 101.053 C 224.828 100.836,224.412 100.734,224.172 100.827 C 223.931 100.919,223.734 100.893,223.734 100.769 C 223.734 100.138,222.516 99.255,222.110 99.592 C 221.881 99.782,221.610 99.854,221.508 99.752 C 221.405 99.650,221.474 99.566,221.659 99.566 C 221.845 99.566,221.997 99.420,221.997 99.243 C 221.997 99.062,221.742 98.986,221.418 99.071 C 220.989 99.183,220.839 99.080,220.839 98.670 C 220.839 98.275,220.635 98.119,220.116 98.119 C 219.718 98.119,219.392 98.004,219.392 97.863 C 219.392 97.463,218.281 97.273,218.106 97.643 C 218.021 97.825,218.019 97.695,218.102 97.354 C 218.223 96.858,218.070 96.671,217.332 96.414 C 216.117 95.990,215.984 96.009,216.660 96.508 C 217.213 96.918,217.213 96.923,216.643 96.820 C 216.324 96.763,215.958 96.706,215.830 96.694 C 215.701 96.681,215.675 96.542,215.773 96.384 C 216.100 95.856,215.407 95.110,214.283 94.781 C 213.670 94.602,213.201 94.305,213.241 94.120 C 213.322 93.735,211.359 92.831,210.968 93.073 C 210.733 93.217,210.587 92.812,210.675 92.258 C 210.694 92.138,210.246 92.041,209.679 92.041 C 209.112 92.041,208.710 91.941,208.785 91.820 C 209.146 91.237,208.111 90.517,207.139 90.674 C 206.485 90.780,206.154 90.720,206.160 90.497 C 206.189 89.463,206.035 89.219,205.355 89.219 C 204.957 89.219,204.631 89.352,204.631 89.516 C 204.631 89.680,204.370 89.513,204.052 89.146 C 203.734 88.779,203.473 88.312,203.473 88.107 C 203.473 87.900,203.058 87.696,202.533 87.645 C 201.827 87.577,201.570 87.399,201.503 86.934 C 201.408 86.267,199.816 85.789,199.623 86.370 C 199.555 86.575,199.292 86.558,198.820 86.317 C 198.166 85.983,198.162 85.970,198.770 86.125 C 199.201 86.235,199.420 86.162,199.417 85.910 C 199.409 85.222,198.999 84.858,198.118 84.758 C 197.567 84.696,197.150 84.432,196.975 84.034 C 196.696 83.397,194.911 82.929,194.611 83.414 C 194.531 83.542,194.311 83.637,194.122 83.624 C 193.889 83.609,193.881 83.558,194.097 83.469 C 194.735 83.206,194.190 81.910,193.441 81.910 C 193.054 81.910,192.421 81.593,192.033 81.205 C 191.645 80.818,191.254 80.621,191.163 80.768 C 191.070 80.918,190.705 80.844,190.330 80.598 C 189.962 80.357,189.448 80.243,189.187 80.343 C 188.914 80.448,188.712 80.381,188.712 80.188 C 188.712 80.002,188.842 79.931,189.001 80.029 C 189.161 80.127,189.291 80.012,189.291 79.774 C 189.291 79.190,189.010 79.051,187.635 78.954 C 186.802 78.895,186.487 78.749,186.532 78.444 C 186.597 78.000,185.490 77.279,184.744 77.279 C 184.509 77.279,184.248 77.017,184.164 76.697 C 183.981 75.998,182.976 75.701,181.566 75.930 C 180.695 76.071,180.608 76.041,181.019 75.740 C 181.769 75.192,181.300 74.389,180.215 74.365 C 179.304 74.344,177.806 73.865,178.534 73.826 C 179.391 73.781,178.604 73.073,177.546 72.938 C 176.643 72.823,176.392 72.660,176.319 72.142 C 176.243 71.611,176.042 71.491,175.233 71.491 C 173.786 71.491,173.799 71.486,173.886 72.016 C 173.955 72.440,173.924 72.436,173.646 71.982 C 173.427 71.625,173.420 71.348,173.622 71.104 C 174.097 70.532,173.597 70.094,172.355 69.993 C 171.414 69.916,171.184 69.779,171.109 69.247 C 171.041 68.769,170.810 68.586,170.240 68.559 C 168.525 68.478,168.095 68.361,167.632 67.855 C 167.177 67.356,167.179 67.348,167.668 67.717 C 168.039 67.997,168.276 68.020,168.498 67.797 C 168.721 67.574,168.509 67.402,167.754 67.193 C 167.172 67.033,166.451 66.599,166.150 66.229 C 165.618 65.576,165.579 65.571,164.760 66.052 C 164.097 66.440,163.917 66.462,163.917 66.151 C 163.917 65.935,164.091 65.824,164.303 65.905 C 164.515 65.987,164.689 65.924,164.689 65.767 C 164.689 65.609,164.425 65.411,164.102 65.326 C 163.779 65.242,163.551 65.010,163.595 64.812 C 163.640 64.613,163.350 64.354,162.952 64.237 C 161.936 63.936,160.864 63.919,161.041 64.206 C 161.123 64.339,161.028 64.448,160.831 64.448 C 160.633 64.448,160.471 64.218,160.471 63.938 C 160.471 63.658,160.574 63.492,160.699 63.569 C 160.824 63.647,160.926 63.528,160.926 63.305 C 160.926 63.082,160.405 62.743,159.768 62.552 C 159.132 62.362,158.611 62.037,158.611 61.831 C 158.611 61.625,158.415 61.435,158.177 61.409 C 157.938 61.382,157.536 61.339,157.283 61.312 C 157.031 61.286,156.633 60.972,156.400 60.616 C 156.119 60.188,155.737 59.994,155.275 60.044 C 154.890 60.087,154.635 60.024,154.708 59.905 C 154.926 59.553,153.157 59.409,152.770 59.747 C 152.546 59.944,152.556 59.873,152.796 59.555 C 153.006 59.278,153.293 59.123,153.434 59.210 C 153.854 59.469,153.725 58.855,153.282 58.487 C 153.014 58.265,152.811 58.249,152.693 58.441 C 152.529 58.705,151.834 58.249,150.633 57.091 C 150.427 56.892,149.976 56.729,149.632 56.729 C 149.249 56.729,148.946 56.505,148.854 56.151 C 148.697 55.553,148.633 55.526,147.178 55.464 C 146.597 55.439,146.336 55.554,146.389 55.810 C 146.497 56.329,145.950 55.963,145.577 55.266 C 145.393 54.922,145.384 54.703,145.555 54.703 C 145.708 54.703,145.893 54.931,145.965 55.210 C 146.047 55.521,146.111 55.410,146.131 54.920 C 146.150 54.483,146.067 54.108,145.948 54.088 C 145.829 54.067,145.455 54.021,145.119 53.984 C 144.297 53.895,143.849 53.592,143.849 53.125 C 143.849 52.690,143.064 52.303,142.672 52.545 C 142.283 52.785,141.245 52.137,141.245 51.654 C 141.245 51.277,140.689 51.080,139.984 51.206 C 139.350 51.319,138.640 50.845,138.640 50.309 C 138.640 49.832,138.497 49.743,137.918 49.853 C 137.507 49.932,137.055 49.822,136.869 49.598 C 136.690 49.381,136.371 49.204,136.161 49.204 C 135.951 49.204,135.687 49.054,135.573 48.870 C 135.445 48.663,135.494 48.614,135.701 48.742 C 135.884 48.856,136.035 48.797,136.035 48.611 C 136.035 48.396,135.672 48.315,135.042 48.388 C 134.453 48.457,134.119 48.391,134.221 48.226 C 134.319 48.067,134.188 48.027,133.915 48.131 C 133.652 48.232,133.451 48.222,133.468 48.108 C 133.614 47.123,133.386 46.889,132.278 46.889 C 131.290 46.889,131.099 46.785,130.944 46.165 C 130.801 45.597,130.578 45.441,129.905 45.441 C 129.045 45.441,128.220 44.885,128.220 44.304 C 128.220 44.028,127.577 43.898,126.172 43.888 C 125.866 43.886,125.754 43.685,125.832 43.279 C 125.929 42.772,125.791 42.663,124.985 42.608 C 124.381 42.567,123.786 42.275,123.386 41.822 C 123.035 41.425,122.553 41.100,122.314 41.100 C 121.582 41.100,120.405 40.450,120.405 40.046 C 120.405 39.836,120.047 39.584,119.609 39.487 C 117.983 39.125,117.800 39.022,117.800 38.475 C 117.800 38.028,117.595 37.916,116.780 37.916 C 115.958 37.916,115.706 37.775,115.485 37.192 C 115.284 36.665,114.992 36.466,114.407 36.460 C 113.458 36.449,112.634 35.895,112.806 35.384 C 112.878 35.171,112.680 35.022,112.325 35.022 C 111.993 35.022,111.718 35.185,111.713 35.384 C 111.708 35.584,111.573 35.520,111.410 35.239 C 111.247 34.960,110.926 34.732,110.695 34.732 C 110.464 34.732,110.275 34.472,110.275 34.153 C 110.275 33.835,110.094 33.575,109.872 33.575 C 109.650 33.575,109.400 33.396,109.316 33.178 C 109.160 32.771,103.015 32.537,102.629 32.923 M201.234 87.804 C 201.098 88.019,200.992 87.956,200.926 87.623 C 200.870 87.343,200.684 87.200,200.512 87.306 C 200.322 87.424,200.284 87.363,200.415 87.151 C 200.579 86.886,200.727 86.883,201.036 87.139 C 201.258 87.324,201.348 87.623,201.234 87.804 M196.894 144.195 C 196.857 172.561,196.778 195.908,196.719 196.076 C 196.659 196.244,196.608 196.014,196.605 195.564 C 196.602 195.115,196.433 194.594,196.231 194.407 C 195.950 194.147,195.908 194.147,196.054 194.406 C 196.158 194.593,195.732 194.465,195.107 194.123 C 194.481 193.780,194.043 193.381,194.133 193.235 C 194.224 193.087,193.961 193.034,193.539 193.114 C 193.115 193.196,192.854 193.142,192.947 192.992 C 193.037 192.846,192.936 192.750,192.721 192.779 C 191.791 192.907,191.432 192.774,191.896 192.475 C 192.264 192.237,192.250 192.193,191.806 192.190 C 191.518 192.187,191.363 192.055,191.462 191.896 C 191.563 191.732,191.320 191.606,190.900 191.606 C 190.211 191.606,188.890 190.656,189.179 190.368 C 189.249 190.297,188.729 190.077,188.023 189.879 C 187.243 189.661,186.685 189.319,186.604 189.009 C 186.512 188.656,186.055 188.437,185.113 188.296 C 184.022 188.132,183.818 188.016,184.077 187.704 C 184.453 187.251,184.282 187.118,182.961 186.834 C 182.339 186.701,181.930 186.416,181.834 186.049 C 181.714 185.589,181.492 185.497,180.720 185.587 C 179.755 185.700,179.281 185.284,179.417 184.443 C 179.455 184.209,179.104 184.081,178.429 184.081 C 177.407 184.081,176.556 183.565,176.556 182.944 C 176.556 182.773,176.287 182.634,175.958 182.634 C 175.040 182.634,174.240 182.102,174.427 181.616 C 174.544 181.312,174.393 181.186,173.909 181.183 C 172.655 181.175,171.925 180.845,171.925 180.285 C 171.925 179.872,171.697 179.729,170.984 179.695 C 170.467 179.671,169.848 179.631,169.609 179.605 C 169.370 179.580,169.034 179.662,168.862 179.789 C 168.675 179.926,168.548 179.852,168.548 179.606 C 168.548 179.379,168.624 179.201,168.717 179.211 C 169.253 179.269,169.513 179.110,169.513 178.726 C 169.513 178.446,169.231 178.292,168.716 178.292 C 167.528 178.292,167.004 178.008,167.004 177.361 C 167.004 176.865,166.853 176.800,165.947 176.905 C 165.030 177.012,164.830 176.921,164.428 176.215 C 164.166 175.755,163.714 175.399,163.386 175.395 C 162.657 175.387,162.238 175.104,162.000 174.457 C 161.851 174.054,160.922 173.758,160.564 174.000 C 160.310 174.172,159.190 173.268,159.190 172.891 C 159.190 172.533,158.995 172.470,158.307 172.608 C 157.759 172.717,157.491 172.676,157.600 172.499 C 157.697 172.342,157.561 172.214,157.298 172.214 C 157.035 172.214,156.751 171.950,156.666 171.627 C 156.557 171.209,156.357 171.090,155.970 171.213 C 155.648 171.315,155.427 171.246,155.427 171.042 C 155.427 170.834,155.147 170.753,154.712 170.836 C 154.319 170.911,154.065 170.862,154.149 170.727 C 154.232 170.593,154.167 170.253,154.004 169.973 C 153.841 169.694,153.702 169.595,153.695 169.754 C 153.687 169.913,153.574 169.875,153.443 169.668 C 153.312 169.462,152.676 169.272,152.028 169.246 C 151.070 169.208,150.935 169.138,151.302 168.869 C 151.854 168.465,151.544 167.873,150.779 167.873 C 150.079 167.873,150.036 168.373,150.724 168.511 C 151.193 168.606,151.191 168.629,150.697 168.823 C 150.304 168.978,150.124 168.880,150.012 168.453 C 149.928 168.134,149.694 167.873,149.491 167.873 C 149.288 167.873,149.040 167.547,148.940 167.149 C 148.739 166.347,147.731 166.154,147.049 166.787 C 146.813 167.006,146.732 167.018,146.844 166.818 C 146.946 166.635,146.835 166.411,146.597 166.320 C 146.360 166.229,146.165 165.890,146.165 165.566 C 146.165 165.171,145.975 164.978,145.586 164.978 C 145.268 164.978,145.040 165.125,145.080 165.304 C 145.119 165.483,144.957 165.688,144.718 165.760 C 144.381 165.862,144.368 165.831,144.663 165.624 C 144.956 165.417,144.883 165.253,144.340 164.897 C 143.797 164.541,143.556 164.515,143.274 164.780 C 142.983 165.054,142.976 164.996,143.235 164.491 C 143.651 163.681,143.645 163.628,143.139 163.628 C 142.907 163.628,142.802 163.769,142.905 163.941 C 143.008 164.114,142.874 164.077,142.606 163.861 C 142.339 163.644,141.916 163.545,141.667 163.640 C 141.418 163.736,141.271 163.718,141.340 163.600 C 141.616 163.132,140.941 161.929,140.655 162.380 C 140.442 162.718,140.384 162.724,140.381 162.412 C 140.378 162.147,140.138 162.062,139.653 162.155 C 139.255 162.231,138.929 162.173,138.929 162.027 C 138.929 161.880,138.796 161.843,138.632 161.944 C 138.469 162.044,138.355 162.020,138.377 161.888 C 138.522 161.058,138.332 160.540,138.003 160.868 C 137.812 161.059,137.519 161.214,137.352 161.211 C 137.185 161.209,137.243 161.067,137.482 160.897 C 137.831 160.648,137.788 160.615,137.264 160.729 C 136.906 160.808,136.680 160.763,136.762 160.631 C 136.844 160.498,136.656 160.308,136.343 160.209 C 135.999 160.099,135.838 159.863,135.936 159.609 C 136.090 159.208,135.539 159.082,133.653 159.088 C 133.278 159.089,133.230 158.996,133.461 158.718 C 133.799 158.311,133.578 157.742,133.083 157.742 C 132.911 157.742,132.613 157.958,132.421 158.220 C 132.143 158.599,132.023 158.620,131.837 158.320 C 131.683 158.071,131.717 158.012,131.938 158.149 C 132.122 158.263,132.272 158.205,132.272 158.022 C 132.272 157.838,132.012 157.620,131.693 157.537 C 131.375 157.454,131.114 157.202,131.114 156.978 C 131.114 156.593,129.888 155.935,129.440 156.079 C 129.173 156.166,128.042 155.369,127.897 154.993 C 127.836 154.834,127.513 154.707,127.179 154.711 C 126.845 154.716,126.417 154.553,126.227 154.349 C 126.037 154.146,125.981 153.980,126.102 153.980 C 126.223 153.980,126.033 153.777,125.679 153.529 C 125.325 153.281,124.927 153.144,124.796 153.226 C 124.664 153.307,124.055 152.961,123.443 152.456 C 122.728 151.867,122.287 151.664,122.211 151.890 C 122.146 152.084,121.967 152.243,121.811 152.243 C 121.656 152.243,121.600 152.129,121.686 151.989 C 121.941 151.577,120.385 150.217,119.659 150.217 C 119.292 150.217,118.906 150.078,118.801 149.908 C 118.696 149.738,118.444 149.662,118.241 149.740 C 118.028 149.822,117.888 149.682,117.909 149.409 C 117.958 148.770,116.972 148.606,116.548 149.182 C 116.260 149.575,116.204 149.512,116.177 148.766 C 116.134 147.541,114.595 146.776,113.972 147.670 C 113.796 147.923,113.767 147.843,113.884 147.426 C 114.145 146.489,112.913 145.409,112.446 146.165 C 112.347 146.324,112.112 146.444,111.922 146.432 C 111.698 146.417,111.714 146.354,111.965 146.254 C 112.235 146.146,112.147 145.992,111.676 145.747 C 111.303 145.553,111.028 145.250,111.065 145.074 C 111.146 144.683,110.111 144.316,109.680 144.583 C 109.381 144.768,108.249 143.963,108.249 143.565 C 108.249 143.458,108.638 143.428,109.114 143.498 C 110.362 143.681,111.341 143.362,111.510 142.716 C 111.612 142.328,111.958 142.126,112.630 142.061 C 113.564 141.972,113.602 141.922,113.559 140.823 C 113.525 139.956,113.581 139.799,113.792 140.175 C 113.944 140.447,113.983 140.809,113.878 140.979 C 113.773 141.148,113.962 141.116,114.297 140.907 C 114.632 140.698,114.906 140.441,114.906 140.338 C 114.906 140.234,115.120 140.067,115.381 139.966 C 115.778 139.814,115.796 139.856,115.490 140.225 C 115.289 140.467,115.248 140.666,115.399 140.666 C 115.795 140.666,116.970 139.353,116.761 139.144 C 116.664 139.048,116.843 139.036,117.158 139.118 C 117.826 139.293,119.756 137.621,119.164 137.381 C 118.968 137.301,119.036 137.228,119.320 137.215 C 119.598 137.203,119.837 137.355,119.849 137.554 C 119.866 137.823,119.908 137.827,120.013 137.571 C 120.090 137.380,120.340 137.297,120.569 137.384 C 120.827 137.484,120.984 137.362,120.984 137.062 C 120.984 136.771,120.851 136.661,120.650 136.786 C 120.436 136.918,120.395 136.865,120.534 136.639 C 120.655 136.444,120.919 136.348,121.122 136.426 C 121.325 136.504,121.804 136.406,122.186 136.207 C 122.568 136.009,123.031 135.897,123.215 135.958 C 123.399 136.020,123.693 135.802,123.869 135.473 C 124.045 135.145,124.430 134.877,124.727 134.877 C 125.023 134.877,125.572 134.554,125.946 134.158 C 126.321 133.763,126.852 133.438,127.126 133.435 C 127.427 133.432,127.563 133.273,127.471 133.033 C 127.358 132.740,127.514 132.673,128.058 132.777 C 128.585 132.878,128.799 132.794,128.799 132.487 C 128.799 132.111,130.244 131.538,130.897 131.654 C 131.017 131.676,131.114 131.433,131.114 131.114 C 131.114 130.758,131.309 130.534,131.621 130.531 C 131.999 130.528,132.032 130.466,131.751 130.288 C 131.523 130.143,131.863 130.059,132.619 130.075 C 133.527 130.094,133.841 129.995,133.781 129.707 C 133.735 129.490,133.930 129.137,134.215 128.922 C 134.694 128.560,134.684 128.540,134.073 128.650 C 133.711 128.715,133.486 128.653,133.573 128.512 C 133.660 128.371,133.989 128.313,134.304 128.382 C 134.619 128.452,135.137 128.567,135.456 128.638 C 135.774 128.708,136.035 128.652,136.035 128.513 C 136.035 127.970,136.988 127.352,137.826 127.352 C 138.612 127.352,138.692 127.273,138.567 126.621 C 138.491 126.219,138.561 125.809,138.723 125.708 C 138.906 125.595,138.928 125.672,138.782 125.909 C 138.607 126.191,138.678 126.241,139.050 126.098 C 139.328 125.992,140.014 125.904,140.576 125.904 C 141.310 125.904,141.554 125.796,141.447 125.516 C 141.168 124.789,141.743 124.359,142.936 124.406 C 143.937 124.445,144.112 124.361,144.192 123.803 C 144.265 123.286,144.499 123.137,145.351 123.066 C 146.196 122.996,146.437 122.845,146.509 122.343 C 146.579 121.848,146.842 121.676,147.703 121.563 C 148.653 121.438,148.882 121.256,149.344 120.260 C 149.640 119.622,149.891 119.330,149.904 119.609 C 149.950 120.609,151.660 120.075,151.738 119.036 C 151.765 118.679,151.932 118.500,152.158 118.587 C 152.732 118.807,153.980 118.414,153.982 118.012 C 153.984 117.462,155.601 116.666,156.328 116.857 C 156.853 116.994,156.936 116.932,156.777 116.518 C 156.638 116.155,156.751 115.966,157.170 115.856 C 157.607 115.742,157.715 115.543,157.591 115.087 C 157.431 114.501,157.443 114.497,157.850 115.004 C 158.312 115.579,159.212 115.564,159.407 114.978 C 159.486 114.742,159.343 114.673,158.997 114.781 C 158.705 114.872,158.785 114.756,159.175 114.523 C 159.565 114.290,160.075 114.173,160.308 114.263 C 160.564 114.361,160.656 114.302,160.539 114.114 C 160.417 113.916,160.555 113.857,160.917 113.951 C 161.297 114.051,161.777 113.810,162.360 113.227 C 162.954 112.634,163.421 112.402,163.817 112.506 C 164.226 112.612,164.399 112.517,164.399 112.184 C 164.399 111.923,164.721 111.563,165.114 111.384 C 165.507 111.205,165.752 110.934,165.658 110.783 C 165.564 110.631,165.750 110.647,166.072 110.819 C 166.560 111.081,166.733 111.014,167.126 110.414 C 167.496 109.849,167.842 109.696,168.748 109.696 C 169.381 109.696,169.899 109.558,169.899 109.390 C 169.899 109.221,169.736 109.178,169.537 109.295 C 169.338 109.411,169.423 109.223,169.726 108.878 C 170.096 108.456,170.613 108.249,171.294 108.249 C 171.853 108.249,172.225 108.163,172.120 108.058 C 172.015 107.954,172.069 107.700,172.240 107.494 C 172.488 107.195,172.328 107.154,171.442 107.291 C 170.832 107.385,170.399 107.388,170.481 107.298 C 170.655 107.104,172.944 106.753,173.878 106.778 C 174.237 106.788,174.530 106.648,174.530 106.469 C 174.530 105.938,175.479 105.374,176.387 105.364 C 176.851 105.359,177.144 105.267,177.037 105.161 C 176.674 104.797,177.802 103.907,178.627 103.907 C 179.257 103.907,179.450 103.772,179.450 103.329 C 179.450 103.010,179.613 102.748,179.812 102.745 C 180.078 102.742,180.070 102.675,179.781 102.492 C 179.540 102.339,179.500 102.174,179.678 102.064 C 179.838 101.965,180.039 102.069,180.126 102.295 C 180.316 102.790,181.505 102.563,181.861 101.964 C 182.131 101.510,183.481 100.867,184.388 100.760 C 184.556 100.740,184.614 100.594,184.516 100.435 C 184.418 100.277,184.667 99.997,185.069 99.814 C 185.471 99.631,185.735 99.377,185.656 99.249 C 185.577 99.122,185.777 99.068,186.099 99.130 C 186.422 99.192,186.702 99.120,186.722 98.970 C 186.742 98.820,186.775 98.578,186.795 98.432 C 186.814 98.286,186.949 98.058,187.094 97.926 C 187.249 97.784,187.266 97.844,187.134 98.071 C 186.970 98.356,187.090 98.430,187.595 98.353 C 187.970 98.296,188.252 98.109,188.220 97.938 C 188.185 97.750,188.465 97.683,188.918 97.770 C 189.485 97.879,189.636 97.813,189.519 97.509 C 189.355 97.082,189.980 96.299,190.261 96.580 C 190.350 96.670,190.657 96.641,190.943 96.517 C 191.228 96.393,191.624 96.317,191.823 96.349 C 192.022 96.381,192.185 96.211,192.185 95.972 C 192.185 95.709,192.642 95.413,193.340 95.225 C 193.974 95.054,194.463 94.772,194.425 94.599 C 194.387 94.426,194.747 94.152,195.224 93.992 C 196.322 93.622,196.855 93.206,196.651 92.876 C 196.564 92.735,196.598 92.619,196.727 92.619 C 196.856 92.619,196.931 115.828,196.894 144.195 M192.475 94.811 C 192.475 94.902,192.279 95.172,192.041 95.410 C 191.569 95.882,191.510 95.811,191.782 95.103 C 191.947 94.673,192.475 94.450,192.475 94.811 M231.259 105.544 C 231.259 105.648,230.999 105.498,230.680 105.210 C 230.362 104.922,230.101 104.576,230.101 104.441 C 230.101 104.307,230.362 104.457,230.680 104.776 C 230.999 105.094,231.259 105.440,231.259 105.544 M237.916 108.683 C 237.916 108.922,237.778 109.117,237.610 109.117 C 237.441 109.117,237.377 108.998,237.467 108.853 C 237.557 108.707,237.467 108.522,237.267 108.441 C 237.047 108.353,237.104 108.286,237.410 108.272 C 237.688 108.259,237.916 108.444,237.916 108.683 M143.887 123.109 C 143.710 123.323,143.635 123.567,143.720 123.652 C 143.805 123.737,143.673 123.884,143.428 123.978 C 142.850 124.200,142.854 123.757,143.436 123.176 C 143.991 122.621,144.335 122.570,143.887 123.109 M265.807 124.891 C 265.898 125.130,265.847 125.326,265.693 125.326 C 265.539 125.326,265.412 125.205,265.412 125.057 C 265.412 124.910,265.185 124.730,264.906 124.657 C 264.506 124.552,264.530 124.517,265.020 124.491 C 265.361 124.472,265.715 124.653,265.807 124.891 M129.088 156.729 C 129.088 156.968,128.972 157.164,128.830 157.164 C 128.688 157.164,128.496 156.968,128.405 156.729 C 128.303 156.465,128.404 156.295,128.663 156.295 C 128.897 156.295,129.088 156.491,129.088 156.729 M266.370 162.643 C 266.289 162.950,266.034 163.274,265.803 163.363 C 265.380 163.525,265.468 163.227,266.072 162.446 C 266.462 161.942,266.540 161.993,266.370 162.643 M246.268 174.851 C 245.644 175.246,245.338 175.148,245.728 174.678 C 245.925 174.441,246.215 174.327,246.373 174.424 C 246.548 174.532,246.507 174.700,246.268 174.851 M171.005 180.401 C 171.239 180.683,171.177 180.773,170.751 180.773 C 170.176 180.773,170.037 180.566,170.381 180.222 C 170.636 179.967,170.647 179.970,171.005 180.401 M173.589 182.513 C 173.313 182.789,172.760 182.342,172.966 182.010 C 173.088 181.812,173.250 181.817,173.458 182.025 C 173.628 182.195,173.687 182.415,173.589 182.513 M185.674 188.782 C 185.804 188.664,185.824 188.718,185.719 188.902 C 185.614 189.086,185.269 189.169,184.952 189.086 C 184.636 189.003,184.452 188.814,184.544 188.665 C 184.645 188.501,184.855 188.513,185.074 188.695 C 185.274 188.861,185.543 188.900,185.674 188.782 " stroke="none" fill="#0c6c9c" fill-rule="evenodd"></path><path id="path1" d="M110.275 34.153 C 110.275 34.472,110.377 34.732,110.503 34.732 C 110.628 34.732,110.750 34.472,110.774 34.153 C 110.798 33.835,110.696 33.575,110.546 33.575 C 110.397 33.575,110.275 33.835,110.275 34.153 M145.577 55.266 C 146.027 56.106,146.328 56.187,146.382 55.483 C 146.419 54.986,146.372 54.945,146.157 55.286 C 145.926 55.650,145.884 55.639,145.880 55.210 C 145.878 54.931,145.741 54.703,145.576 54.703 C 145.370 54.703,145.370 54.879,145.577 55.266 M167.399 67.654 C 167.769 68.270,168.644 68.625,168.644 68.159 C 168.644 67.936,168.530 67.824,168.391 67.910 C 168.251 67.997,167.922 67.893,167.660 67.680 C 167.323 67.408,167.247 67.400,167.399 67.654 M173.518 71.199 C 173.420 71.357,173.462 71.702,173.610 71.967 C 173.828 72.358,173.878 72.304,173.878 71.679 C 173.878 70.854,173.798 70.747,173.518 71.199 M185.673 77.569 C 185.771 77.728,186.047 77.858,186.286 77.858 C 186.525 77.858,186.640 77.728,186.541 77.569 C 186.443 77.410,186.167 77.279,185.928 77.279 C 185.689 77.279,185.575 77.410,185.673 77.569 M199.444 85.910 C 199.429 86.158,199.195 86.233,198.770 86.125 L 198.119 85.959 198.773 86.296 C 199.491 86.665,199.855 86.499,199.619 85.908 C 199.494 85.595,199.463 85.596,199.444 85.910 M200.415 87.151 C 200.284 87.363,200.322 87.424,200.512 87.306 C 200.684 87.200,200.867 87.330,200.919 87.596 C 201.003 88.026,201.059 88.019,201.438 87.527 C 201.671 87.224,201.748 87.072,201.609 87.190 C 201.470 87.308,201.193 87.269,200.993 87.104 C 200.738 86.892,200.566 86.906,200.415 87.151 M210.601 92.271 C 210.522 92.398,210.561 92.670,210.688 92.875 C 210.856 93.146,210.961 93.084,211.076 92.644 C 211.228 92.062,210.893 91.799,210.601 92.271 M191.782 95.103 C 191.510 95.811,191.569 95.882,192.041 95.410 C 192.533 94.918,192.595 94.645,192.216 94.645 C 192.074 94.645,191.879 94.851,191.782 95.103 M215.775 96.381 C 215.676 96.541,215.701 96.681,215.830 96.694 C 215.958 96.706,216.292 96.759,216.570 96.813 C 217.236 96.940,217.213 96.765,216.515 96.391 C 216.142 96.192,215.894 96.188,215.775 96.381 M185.709 99.334 C 185.787 99.462,186.105 99.566,186.414 99.566 C 186.723 99.566,186.975 99.462,186.975 99.334 C 186.975 99.207,186.658 99.103,186.271 99.103 C 185.883 99.103,185.630 99.207,185.709 99.334 M230.101 104.441 C 230.101 104.576,230.362 104.922,230.680 105.210 C 230.999 105.498,231.259 105.648,231.259 105.544 C 231.259 105.440,230.999 105.094,230.680 104.776 C 230.362 104.457,230.101 104.307,230.101 104.441 M171.201 107.091 C 170.400 107.295,170.389 107.314,171.056 107.342 C 171.454 107.358,171.975 107.245,172.214 107.091 C 172.707 106.773,172.452 106.773,171.201 107.091 M237.267 108.441 C 237.467 108.522,237.557 108.707,237.467 108.853 C 237.377 108.998,237.441 109.117,237.610 109.117 C 237.778 109.117,237.916 108.922,237.916 108.683 C 237.916 108.444,237.688 108.259,237.410 108.272 C 237.104 108.286,237.047 108.353,237.267 108.441 M153.241 117.826 C 152.988 118.234,153.546 118.792,153.955 118.539 C 154.128 118.433,154.254 118.125,154.236 117.856 C 154.205 117.414,154.189 117.416,154.070 117.873 C 153.997 118.151,153.803 118.379,153.638 118.379 C 153.474 118.379,153.414 118.184,153.506 117.945 C 153.699 117.442,153.526 117.364,153.241 117.826 M143.436 123.176 C 142.854 123.757,142.850 124.200,143.428 123.978 C 143.673 123.884,143.805 123.737,143.720 123.652 C 143.635 123.567,143.710 123.323,143.887 123.109 C 144.335 122.570,143.991 122.621,143.436 123.176 M264.906 124.657 C 265.185 124.730,265.412 124.910,265.412 125.057 C 265.412 125.205,265.539 125.326,265.693 125.326 C 265.847 125.326,265.898 125.130,265.807 124.891 C 265.715 124.653,265.361 124.472,265.020 124.491 C 264.530 124.517,264.506 124.552,264.906 124.657 M135.237 127.833 C 135.037 127.914,134.950 128.104,135.043 128.255 C 135.140 128.412,134.896 128.472,134.471 128.395 C 134.063 128.321,133.671 128.353,133.600 128.468 C 133.530 128.582,133.956 128.679,134.547 128.683 C 135.394 128.689,135.621 128.580,135.621 128.166 C 135.621 127.877,135.617 127.651,135.611 127.664 C 135.605 127.677,135.437 127.753,135.237 127.833 M113.599 140.521 C 113.659 140.999,113.717 141.487,113.728 141.606 C 113.739 141.726,113.894 141.823,114.073 141.823 C 114.312 141.823,114.313 141.721,114.076 141.435 C 113.898 141.221,113.829 140.971,113.922 140.878 C 114.015 140.785,113.956 140.471,113.790 140.181 C 113.542 139.743,113.509 139.801,113.599 140.521 M117.982 149.500 C 117.844 149.860,117.919 149.885,118.386 149.635 C 119.057 149.276,119.120 149.059,118.555 149.059 C 118.333 149.059,118.076 149.258,117.982 149.500 M128.743 156.202 C 128.458 156.277,128.319 156.506,128.412 156.748 C 128.639 157.339,128.995 157.262,129.172 156.585 C 129.255 156.266,129.303 156.021,129.278 156.039 C 129.253 156.058,129.012 156.131,128.743 156.202 M266.072 162.446 C 265.468 163.227,265.380 163.525,265.803 163.363 C 266.034 163.274,266.289 162.950,266.370 162.643 C 266.540 161.993,266.462 161.942,266.072 162.446 M143.311 164.294 C 142.964 165.070,142.971 165.092,143.428 164.645 C 143.697 164.382,143.864 164.009,143.800 163.816 C 143.735 163.623,143.516 163.838,143.311 164.294 M149.950 168.217 C 149.921 168.850,150.279 169.062,150.810 168.726 C 151.163 168.503,151.153 168.460,150.748 168.456 C 150.482 168.454,150.200 168.289,150.119 168.090 C 150.029 167.867,149.965 167.916,149.950 168.217 M245.756 174.644 C 245.427 175.040,246.177 175.627,246.544 175.260 C 246.627 175.177,246.511 175.107,246.286 175.104 C 245.945 175.100,245.942 175.057,246.268 174.851 C 246.507 174.700,246.548 174.532,246.373 174.424 C 246.215 174.327,245.938 174.425,245.756 174.644 M168.548 179.641 C 168.548 179.840,168.689 179.914,168.862 179.804 C 169.034 179.694,169.262 179.602,169.368 179.599 C 169.474 179.597,169.659 179.497,169.779 179.377 C 169.899 179.257,169.671 179.186,169.272 179.219 C 168.874 179.252,168.548 179.442,168.548 179.641 M170.381 180.222 C 170.037 180.566,170.176 180.773,170.751 180.773 C 171.177 180.773,171.239 180.683,171.005 180.401 C 170.647 179.970,170.636 179.967,170.381 180.222 M172.966 182.010 C 172.866 182.172,172.925 182.392,173.097 182.498 C 173.542 182.773,173.829 182.396,173.458 182.025 C 173.250 181.817,173.088 181.812,172.966 182.010 M184.689 188.532 C 184.429 188.845,184.484 188.964,184.943 189.084 C 185.265 189.168,185.603 189.115,185.694 188.967 C 185.786 188.819,185.753 188.716,185.622 188.739 C 185.037 188.841,184.841 188.679,185.239 188.423 C 185.478 188.268,185.526 188.140,185.347 188.138 C 185.167 188.135,184.871 188.313,184.689 188.532 M190.655 206.574 C 190.280 206.950,190.159 206.973,190.159 206.671 C 190.159 206.451,190.091 206.339,190.008 206.423 C 189.665 206.765,190.225 207.454,190.737 207.320 C 191.116 207.221,191.517 206.078,191.173 206.078 C 191.161 206.078,190.928 206.301,190.655 206.574 M183.068 211.867 C 182.970 212.026,183.150 212.156,183.468 212.156 C 183.786 212.156,184.127 212.026,184.226 211.867 C 184.324 211.708,184.144 211.577,183.826 211.577 C 183.507 211.577,183.166 211.708,183.068 211.867 M152.822 229.233 C 152.822 229.596,153.129 229.596,153.690 229.233 C 154.041 229.006,154.000 228.952,153.473 228.948 C 153.115 228.946,152.822 229.074,152.822 229.233 M150.275 230.355 C 149.801 230.648,150.288 231.208,150.838 231.002 C 151.215 230.862,151.239 230.755,150.954 230.492 C 150.755 230.309,150.450 230.247,150.275 230.355 M139.853 236.315 C 139.371 236.581,139.296 236.726,139.584 236.837 C 139.804 236.921,140.138 236.743,140.327 236.440 C 140.516 236.138,140.637 235.903,140.596 235.918 C 140.555 235.934,140.220 236.113,139.853 236.315 M119.577 247.853 C 119.335 248.145,119.359 248.239,119.674 248.239 C 119.903 248.239,120.158 248.066,120.239 247.853 C 120.320 247.641,120.277 247.467,120.142 247.467 C 120.007 247.467,119.753 247.641,119.577 247.853 M114.558 250.858 C 114.639 251.285,114.859 251.515,115.135 251.461 C 115.662 251.359,115.973 250.651,115.492 250.651 C 115.310 250.651,115.242 250.781,115.340 250.941 C 115.438 251.100,115.366 251.230,115.179 251.230 C 114.991 251.230,114.901 250.992,114.977 250.699 C 115.054 250.404,114.963 250.169,114.771 250.169 C 114.563 250.169,114.478 250.444,114.558 250.858 " stroke="none" fill="#0c6ca4" fill-rule="evenodd"></path></g></svg>