<svg id="svg" version="1.1" xmlns="http://www.w3.org/2000/svg" xmlns:xlink="http://www.w3.org/1999/xlink" width="400" height="215.12415349887132" viewBox="0, 0, 400,215.12415349887132"><g id="svgg"><path id="path0" d="M174.141 66.864 C 177.197 66.897,182.135 66.897,185.115 66.864 C 188.094 66.830,185.594 66.802,179.559 66.802 C 173.523 66.802,171.085 66.830,174.141 66.864 M193.771 66.900 C 193.706 67.006,193.843 67.043,194.076 66.982 C 194.309 66.921,194.791 66.973,195.147 67.097 C 195.608 67.257,195.837 67.254,195.940 67.087 C 196.028 66.945,195.987 66.913,195.837 67.005 C 195.701 67.089,195.589 67.072,195.589 66.966 C 195.589 66.711,193.925 66.651,193.771 66.900 M331.361 66.905 C 331.361 67.261,331.675 67.312,331.961 67.003 C 332.192 66.753,332.164 66.703,331.800 66.703 C 331.558 66.703,331.361 66.794,331.361 66.905 M349.866 68.221 C 349.866 68.347,349.954 68.395,350.062 68.328 C 350.171 68.261,350.303 68.328,350.356 68.476 C 350.409 68.625,350.535 68.669,350.637 68.574 C 350.738 68.478,350.679 68.310,350.505 68.200 C 350.086 67.935,349.866 67.943,349.866 68.221 M321.833 70.450 C 321.412 70.735,321.025 70.927,320.973 70.875 C 320.921 70.823,320.756 70.928,320.607 71.108 C 320.421 71.333,320.411 71.436,320.576 71.436 C 320.709 71.436,320.818 71.348,320.818 71.240 C 320.818 71.132,320.987 71.069,321.194 71.100 C 321.401 71.131,321.697 70.978,321.852 70.759 C 322.007 70.540,322.267 70.360,322.431 70.360 C 322.595 70.360,322.789 70.264,322.862 70.145 C 323.092 69.773,322.628 69.910,321.833 70.450 M357.396 71.554 C 357.396 71.747,357.909 72.182,358.208 72.243 C 358.618 72.327,358.522 72.164,357.934 71.779 C 357.639 71.585,357.396 71.484,357.396 71.554 M360.409 73.796 C 360.409 73.910,360.627 74.117,360.893 74.257 C 361.374 74.510,361.375 74.509,360.967 74.050 C 360.512 73.537,360.409 73.490,360.409 73.796 M281.011 77.246 C 281.138 77.483,281.350 77.676,281.483 77.676 C 281.615 77.676,281.548 77.483,281.334 77.246 C 281.120 77.009,280.908 76.815,280.863 76.815 C 280.818 76.815,280.885 77.009,281.011 77.246 M189.134 77.242 C 189.442 77.444,191.244 77.563,191.049 77.367 C 190.997 77.316,190.473 77.219,189.883 77.151 C 189.139 77.066,188.910 77.094,189.134 77.242 M312.317 77.677 C 312.102 77.915,311.974 78.156,312.031 78.214 C 312.089 78.271,312.346 78.077,312.602 77.782 C 313.154 77.147,312.886 77.049,312.317 77.677 M193.975 77.891 C 194.212 77.993,194.551 78.076,194.728 78.076 C 194.932 78.076,194.892 78.008,194.621 77.891 C 194.384 77.790,194.045 77.706,193.868 77.706 C 193.664 77.706,193.704 77.775,193.975 77.891 M342.100 77.875 C 342.267 77.980,342.523 78.021,342.670 77.964 C 342.817 77.908,343.000 77.965,343.079 78.092 C 343.157 78.218,343.481 78.320,343.800 78.318 C 344.223 78.316,344.297 78.263,344.075 78.123 C 343.909 78.018,343.652 77.977,343.506 78.034 C 343.359 78.090,343.175 78.032,343.097 77.906 C 343.019 77.780,342.694 77.678,342.376 77.679 C 341.953 77.682,341.878 77.734,342.100 77.875 M195.804 78.314 C 195.804 78.437,195.829 78.537,195.859 78.537 C 195.890 78.537,196.237 78.629,196.631 78.742 C 197.251 78.920,197.312 78.905,197.083 78.629 C 196.938 78.454,196.771 78.359,196.714 78.416 C 196.656 78.474,196.427 78.425,196.206 78.307 C 195.934 78.161,195.804 78.163,195.804 78.314 M331.711 78.582 C 331.859 78.820,332.437 78.795,332.437 78.550 C 332.437 78.439,332.250 78.363,332.021 78.380 C 331.793 78.397,331.653 78.488,331.711 78.582 M345.470 78.512 C 345.405 78.617,345.537 78.752,345.764 78.811 C 346.052 78.886,346.141 78.829,346.061 78.620 C 345.931 78.281,345.645 78.229,345.470 78.512 M330.519 78.693 C 330.175 78.758,330.089 78.846,330.264 78.954 C 330.607 79.166,331.607 78.976,331.453 78.727 C 331.389 78.623,331.269 78.550,331.187 78.566 C 331.105 78.582,330.805 78.639,330.519 78.693 M310.812 79.347 C 310.694 79.434,310.455 79.699,310.281 79.935 C 310.047 80.253,310.118 80.229,310.550 79.844 C 311.076 79.375,311.237 79.176,311.081 79.186 C 311.052 79.187,310.931 79.260,310.812 79.347 M245.724 79.613 C 245.724 79.741,246.553 79.828,247.780 79.828 C 249.097 79.828,249.789 79.750,249.704 79.613 C 249.631 79.494,248.705 79.398,247.647 79.398 C 246.508 79.398,245.724 79.485,245.724 79.613 M252.555 79.557 C 253.413 79.598,254.817 79.598,255.675 79.557 C 256.533 79.516,255.831 79.483,254.115 79.483 C 252.399 79.483,251.697 79.516,252.555 79.557 M283.902 80.097 C 284.234 80.541,284.545 80.904,284.595 80.904 C 284.784 80.904,284.256 80.126,283.789 79.718 C 283.387 79.367,283.408 79.436,283.902 80.097 M328.779 79.747 L 328.241 80.061 328.779 79.918 C 329.378 79.758,329.540 79.656,329.406 79.523 C 329.357 79.473,329.074 79.574,328.779 79.747 M259.279 79.828 C 259.279 79.946,259.424 80.043,259.602 80.043 C 259.779 80.043,259.925 79.946,259.925 79.828 C 259.925 79.710,259.779 79.613,259.602 79.613 C 259.424 79.613,259.279 79.710,259.279 79.828 M201.499 82.571 C 201.686 82.956,201.886 83.271,201.942 83.271 C 202.156 83.271,202.018 82.928,201.596 82.410 L 201.158 81.872 201.499 82.571 M285.545 82.315 C 285.579 82.773,285.895 83.335,286.012 83.146 C 286.081 83.035,286.001 82.756,285.834 82.528 C 285.667 82.299,285.537 82.204,285.545 82.315 M201.844 83.647 C 201.903 84.278,202.230 84.630,202.244 84.077 C 202.252 83.752,202.162 83.486,202.044 83.486 C 201.926 83.486,201.836 83.558,201.844 83.647 M369.016 84.144 C 369.016 84.269,369.126 84.303,369.262 84.220 C 369.432 84.114,369.475 84.244,369.399 84.637 C 369.339 84.951,369.374 85.207,369.476 85.207 C 369.578 85.207,369.661 85.070,369.661 84.902 C 369.661 84.734,369.720 84.444,369.792 84.256 C 369.885 84.012,369.794 83.916,369.469 83.916 C 369.220 83.916,369.016 84.019,369.016 84.144 M322.029 84.459 C 321.926 84.726,321.982 84.745,322.329 84.559 C 322.827 84.292,322.875 84.131,322.454 84.131 C 322.290 84.131,322.098 84.279,322.029 84.459 M286.972 85.064 C 286.904 85.241,286.987 85.440,287.157 85.505 C 287.504 85.638,287.550 85.457,287.278 85.028 C 287.130 84.794,287.073 84.801,286.972 85.064 M202.309 85.637 C 202.309 86.052,202.353 86.221,202.408 86.014 C 202.462 85.807,202.462 85.468,202.408 85.261 C 202.353 85.054,202.309 85.223,202.309 85.637 M359.615 85.153 C 361.249 85.189,363.863 85.189,365.424 85.153 C 366.985 85.116,365.648 85.086,362.453 85.086 C 359.258 85.086,357.981 85.116,359.615 85.153 M287.506 86.391 C 287.641 86.688,287.793 86.889,287.844 86.838 C 287.996 86.686,287.668 85.853,287.456 85.853 C 287.349 85.853,287.371 86.095,287.506 86.391 M273.252 87.305 C 273.623 87.951,274.331 88.767,274.336 88.556 C 274.343 88.273,273.409 86.932,273.204 86.930 C 273.111 86.929,273.132 87.098,273.252 87.305 M287.682 87.238 C 287.682 87.326,287.875 87.645,288.112 87.946 C 288.349 88.246,288.542 88.398,288.542 88.281 C 288.542 88.165,288.349 87.847,288.112 87.574 C 287.875 87.301,287.682 87.150,287.682 87.238 M217.233 89.757 C 217.292 89.853,217.236 90.128,217.108 90.367 C 216.980 90.606,216.960 90.802,217.064 90.802 C 217.167 90.802,217.364 90.555,217.502 90.253 C 217.814 89.569,217.815 89.582,217.438 89.582 C 217.266 89.582,217.174 89.661,217.233 89.757 M198.212 92.746 C 197.953 92.988,197.741 93.247,197.741 93.322 C 197.741 93.397,197.983 93.231,198.279 92.953 C 198.783 92.479,198.908 92.308,198.750 92.308 C 198.713 92.308,198.471 92.505,198.212 92.746 M214.647 94.200 L 214.033 94.997 214.751 94.305 C 215.147 93.924,215.423 93.565,215.366 93.508 C 215.308 93.451,214.985 93.762,214.647 94.200 M289.778 94.244 C 289.881 94.540,289.949 95.002,289.929 95.272 C 289.908 95.541,289.972 95.811,290.070 95.871 C 290.359 96.050,290.168 94.277,289.866 93.979 C 289.643 93.758,289.626 93.808,289.778 94.244 M303.182 94.352 C 302.997 95.314,302.999 95.366,303.209 95.156 C 303.330 95.035,303.383 94.756,303.326 94.536 C 303.270 94.316,303.205 94.233,303.182 94.352 M315.947 94.842 C 316.026 94.970,315.993 95.136,315.872 95.210 C 315.606 95.375,315.583 96.112,315.839 96.270 C 315.941 96.333,316.008 96.169,315.988 95.906 C 315.968 95.643,316.034 95.315,316.136 95.178 C 316.245 95.029,316.215 94.863,316.061 94.768 C 315.903 94.670,315.858 94.699,315.947 94.842 M187.123 95.051 C 187.068 95.140,187.295 95.212,187.628 95.212 C 187.960 95.212,188.187 95.140,188.132 95.051 C 188.078 94.962,187.850 94.890,187.628 94.890 C 187.405 94.890,187.178 94.962,187.123 95.051 M179.882 95.535 C 179.882 95.666,180.850 95.750,182.356 95.750 C 183.862 95.750,184.831 95.666,184.831 95.535 C 184.831 95.404,183.862 95.320,182.356 95.320 C 180.850 95.320,179.882 95.404,179.882 95.535 M302.851 95.750 C 302.778 95.869,302.796 95.969,302.892 95.972 C 302.988 95.976,302.917 96.066,302.735 96.173 C 302.552 96.280,302.379 96.719,302.350 97.150 C 302.305 97.819,302.342 97.892,302.604 97.649 C 302.806 97.461,302.834 97.316,302.685 97.222 C 302.539 97.131,302.585 96.954,302.816 96.723 C 303.013 96.526,303.174 96.178,303.174 95.950 C 303.174 95.493,303.055 95.420,302.851 95.750 M60.516 96.258 C 60.250 96.390,60.032 96.575,60.032 96.670 C 60.032 96.877,60.815 96.481,61.001 96.180 C 61.074 96.062,61.104 95.977,61.067 95.992 C 61.030 96.007,60.783 96.126,60.516 96.258 M208.684 98.542 L 208.176 98.968 208.766 98.704 C 209.091 98.559,209.357 98.367,209.358 98.279 C 209.361 98.032,209.237 98.080,208.684 98.542 M206.762 99.418 C 206.523 99.566,206.536 99.627,206.831 99.740 C 207.343 99.936,207.648 99.779,207.327 99.483 C 207.166 99.336,206.937 99.310,206.762 99.418 M208.069 100.007 C 208.069 100.113,208.320 100.314,208.626 100.454 C 209.069 100.655,209.165 100.651,209.092 100.435 C 209.042 100.284,208.912 100.160,208.804 100.158 C 208.696 100.156,208.486 100.078,208.338 99.984 C 208.190 99.890,208.069 99.900,208.069 100.007 M278.070 101.883 C 278.070 102.711,278.109 103.024,278.156 102.577 C 278.203 102.131,278.202 101.453,278.154 101.071 C 278.107 100.689,278.069 101.054,278.070 101.883 M290.115 101.883 C 290.116 102.593,290.156 102.857,290.204 102.471 C 290.252 102.084,290.251 101.503,290.202 101.180 C 290.153 100.856,290.114 101.173,290.115 101.883 M213.492 103.056 C 213.643 103.298,213.889 103.497,214.038 103.497 C 214.437 103.497,214.372 103.372,213.763 102.973 C 213.229 102.623,213.223 102.625,213.492 103.056 M277.784 105.003 C 277.784 105.239,277.860 105.433,277.953 105.433 C 278.046 105.433,278.122 105.239,278.122 105.003 C 278.122 104.766,278.046 104.572,277.953 104.572 C 277.860 104.572,277.784 104.766,277.784 105.003 M194.083 105.678 C 194.083 105.780,194.220 105.863,194.388 105.863 C 194.556 105.863,194.862 105.928,195.069 106.008 C 195.305 106.098,195.393 106.068,195.305 105.926 C 195.129 105.641,194.083 105.429,194.083 105.678 M196.665 106.056 C 196.227 106.178,196.194 106.232,196.488 106.345 C 196.692 106.423,196.960 106.349,197.106 106.173 C 197.247 106.003,197.327 105.873,197.283 105.885 C 197.239 105.897,196.961 105.974,196.665 106.056 M302.362 106.396 C 302.386 106.689,302.530 106.977,302.682 107.035 C 302.834 107.093,302.959 107.289,302.959 107.470 C 302.959 107.652,303.047 107.800,303.155 107.800 C 303.263 107.800,303.242 107.509,303.108 107.154 C 302.974 106.799,302.792 106.509,302.703 106.509 C 302.614 106.509,302.597 106.364,302.666 106.186 C 302.734 106.009,302.683 105.863,302.554 105.863 C 302.424 105.863,302.338 106.103,302.362 106.396 M217.656 106.984 C 217.886 107.255,218.127 107.526,218.191 107.585 C 218.255 107.644,218.471 108.031,218.670 108.445 C 218.898 108.918,219.035 109.051,219.038 108.803 C 219.043 108.334,217.994 106.791,217.548 106.614 C 217.344 106.532,217.380 106.658,217.656 106.984 M289.984 108.373 C 290.077 108.614,290.039 108.680,289.870 108.576 C 289.731 108.490,289.618 108.531,289.618 108.666 C 289.618 108.801,289.739 108.871,289.887 108.822 C 290.220 108.711,290.379 108.015,290.071 108.015 C 289.948 108.015,289.909 108.176,289.984 108.373 M289.618 109.548 C 289.618 109.929,289.671 109.960,289.941 109.736 C 290.118 109.589,290.264 109.384,290.264 109.280 C 290.264 109.176,290.118 109.091,289.941 109.091 C 289.755 109.091,289.618 109.285,289.618 109.548 M202.629 110.042 C 203.049 110.604,203.202 110.631,203.001 110.107 C 202.930 109.921,202.731 109.716,202.558 109.650 C 202.323 109.559,202.340 109.656,202.629 110.042 M220.686 112.898 C 220.444 113.140,220.539 113.394,220.871 113.394 C 221.049 113.394,221.194 113.303,221.194 113.192 C 221.194 112.921,220.858 112.726,220.686 112.898 M204.618 113.910 C 204.726 114.194,204.755 114.484,204.684 114.556 C 204.613 114.627,204.678 114.685,204.828 114.685 C 204.990 114.685,205.049 114.546,204.972 114.345 C 204.900 114.158,204.841 113.867,204.841 113.699 C 204.841 113.532,204.747 113.394,204.631 113.394 C 204.499 113.394,204.494 113.584,204.618 113.910 M288.165 115.756 C 287.837 116.281,287.830 116.407,288.125 116.407 C 288.250 116.407,288.298 116.318,288.231 116.210 C 288.164 116.102,288.221 115.976,288.358 115.930 C 288.495 115.885,288.568 115.730,288.520 115.587 C 288.465 115.423,288.334 115.485,288.165 115.756 M204.845 116.568 C 204.842 117.298,204.917 117.482,205.218 117.479 C 205.482 117.477,205.515 117.426,205.329 117.308 C 205.184 117.215,205.102 116.942,205.149 116.701 C 205.195 116.460,205.147 116.125,205.041 115.958 C 204.909 115.751,204.847 115.945,204.845 116.568 M320.439 116.309 C 320.527 116.444,320.549 116.604,320.488 116.665 C 320.427 116.726,320.524 116.898,320.705 117.048 C 321.158 117.424,321.121 116.980,320.656 116.474 C 320.449 116.248,320.351 116.174,320.439 116.309 M355.889 117.269 C 355.168 117.894,355.448 117.970,356.213 117.357 C 356.568 117.072,356.752 116.839,356.622 116.838 C 356.493 116.837,356.162 117.031,355.889 117.269 M356.966 117.052 C 356.966 117.191,359.118 117.267,362.991 117.267 C 366.864 117.267,369.016 117.191,369.016 117.052 C 369.016 116.914,366.864 116.837,362.991 116.837 C 359.118 116.837,356.966 116.914,356.966 117.052 M271.907 118.398 L 271.518 119.096 272.069 118.514 C 272.635 117.915,272.740 117.697,272.458 117.699 C 272.370 117.700,272.122 118.014,271.907 118.398 M204.426 119.038 C 204.236 119.582,204.241 119.676,204.445 119.471 C 204.693 119.223,204.934 118.343,204.753 118.343 C 204.707 118.343,204.559 118.656,204.426 119.038 M307.159 118.551 C 307.089 118.665,307.228 118.955,307.469 119.196 C 307.710 119.437,307.899 119.691,307.890 119.760 C 307.880 119.829,307.928 119.942,307.997 120.011 C 308.066 120.080,308.123 119.975,308.123 119.778 C 308.123 119.580,307.937 119.233,307.710 119.007 C 307.483 118.780,307.354 118.538,307.423 118.469 C 307.492 118.400,307.490 118.343,307.418 118.343 C 307.346 118.343,307.230 118.436,307.159 118.551 M322.539 118.709 C 322.539 118.804,322.854 119.129,323.238 119.432 C 324.727 120.606,324.935 120.540,323.507 119.346 C 322.975 118.901,322.539 118.614,322.539 118.709 M286.436 119.735 C 286.520 119.828,286.445 120.182,286.269 120.522 C 286.093 120.862,285.998 121.140,286.057 121.140 C 286.364 121.140,286.807 119.867,286.551 119.720 C 286.404 119.635,286.352 119.641,286.436 119.735 M308.664 120.986 C 308.872 121.315,309.096 121.530,309.162 121.464 C 309.228 121.398,309.058 121.128,308.784 120.865 L 308.286 120.387 308.664 120.986 M368.263 120.710 C 368.336 120.828,368.316 120.925,368.219 120.925 C 368.123 120.925,367.910 121.143,367.748 121.409 C 367.460 121.882,367.466 121.881,368.012 121.378 C 368.491 120.937,368.604 120.495,368.237 120.495 C 368.178 120.495,368.189 120.592,368.263 120.710 M351.694 121.267 L 351.049 121.821 351.748 121.359 C 352.133 121.104,352.448 120.854,352.448 120.803 C 352.448 120.642,352.356 120.698,351.694 121.267 M285.530 121.442 C 285.530 121.622,285.318 121.967,285.059 122.208 C 284.800 122.449,284.697 122.647,284.829 122.647 C 285.194 122.647,286.008 121.411,285.749 121.250 C 285.628 121.176,285.530 121.262,285.530 121.442 M326.066 121.533 C 326.154 121.675,326.631 121.995,327.126 122.243 C 328.179 122.771,327.965 122.506,326.751 121.779 C 326.286 121.501,325.978 121.390,326.066 121.533 M199.677 123.646 C 199.207 123.895,199.194 123.931,199.570 123.931 C 200.082 123.931,200.661 123.603,200.400 123.461 C 200.298 123.406,199.973 123.490,199.677 123.646 M259.817 123.938 C 259.744 124.056,259.889 124.153,260.140 124.153 C 260.391 124.153,260.536 124.056,260.463 123.938 C 260.389 123.819,260.244 123.722,260.140 123.722 C 260.035 123.722,259.890 123.819,259.817 123.938 M311.298 124.081 C 311.446 124.140,311.522 124.264,311.466 124.355 C 311.409 124.446,311.626 124.752,311.947 125.036 C 312.359 125.400,312.430 125.425,312.188 125.121 C 312.000 124.884,311.786 124.521,311.712 124.314 C 311.639 124.107,311.455 123.945,311.303 123.955 C 311.086 123.968,311.084 123.995,311.298 124.081 M365.665 124.102 C 365.367 124.306,365.072 125.083,365.359 124.905 C 365.561 124.781,366.086 123.934,365.957 123.941 C 365.923 123.943,365.792 124.015,365.665 124.102 M249.005 124.314 C 250.632 124.350,253.295 124.350,254.922 124.314 C 256.549 124.277,255.218 124.247,251.963 124.247 C 248.709 124.247,247.378 124.277,249.005 124.314 M218.517 125.343 C 218.288 125.517,218.191 125.660,218.302 125.662 C 218.413 125.664,218.359 125.759,218.182 125.874 C 218.004 125.989,217.969 126.084,218.103 126.086 C 218.238 126.088,218.506 125.847,218.700 125.551 C 219.106 124.932,219.088 124.911,218.517 125.343 M191.644 125.587 C 191.383 125.849,191.496 126.078,191.824 125.952 C 192.001 125.884,192.146 125.742,192.146 125.636 C 192.146 125.410,191.850 125.382,191.644 125.587 M282.024 125.881 C 281.824 126.114,281.745 126.304,281.848 126.304 C 282.084 126.304,282.611 125.681,282.483 125.553 C 282.430 125.500,282.224 125.647,282.024 125.881 M179.695 125.759 C 179.841 125.905,189.583 125.927,189.728 125.782 C 189.796 125.714,187.543 125.659,184.723 125.659 C 181.902 125.659,179.640 125.704,179.695 125.759 M359.850 129.499 C 359.940 129.644,359.870 129.747,359.681 129.747 C 359.504 129.747,359.299 129.844,359.225 129.962 C 359.035 130.270,359.397 130.228,359.862 129.888 C 360.172 129.661,360.197 129.560,359.978 129.424 C 359.792 129.309,359.749 129.335,359.850 129.499 M319.957 131.438 C 319.957 131.659,320.609 131.964,320.759 131.814 C 320.812 131.761,320.653 131.610,320.406 131.478 C 320.159 131.346,319.957 131.328,319.957 131.438 M273.050 131.684 C 272.763 131.869,272.763 131.892,273.050 131.892 C 273.228 131.892,273.518 131.798,273.696 131.684 C 273.982 131.498,273.982 131.475,273.696 131.475 C 273.518 131.475,273.228 131.569,273.050 131.684 M209.844 132.784 C 209.459 133.031,209.145 133.274,209.145 133.324 C 209.145 133.477,210.398 132.779,210.542 132.546 C 210.729 132.244,210.641 132.274,209.844 132.784 M354.169 132.939 C 354.169 133.077,353.999 133.193,353.792 133.197 C 353.264 133.206,352.429 133.835,352.944 133.835 C 353.144 133.835,353.308 133.733,353.308 133.608 C 353.308 133.482,353.391 133.431,353.492 133.493 C 353.746 133.650,354.529 133.048,354.330 132.849 C 354.241 132.760,354.169 132.801,354.169 132.939 M265.311 134.795 C 265.176 134.958,265.241 135.046,265.513 135.067 C 265.734 135.083,265.962 134.975,266.019 134.825 C 266.148 134.488,265.586 134.464,265.311 134.795 M203.658 135.021 L 203.012 135.307 203.591 135.324 C 203.910 135.334,204.234 135.238,204.312 135.112 C 204.540 134.743,204.348 134.716,203.658 135.021 M199.516 135.920 C 199.723 135.974,200.062 135.974,200.269 135.920 C 200.476 135.866,200.307 135.822,199.892 135.822 C 199.478 135.822,199.309 135.866,199.516 135.920 M331.791 136.095 C 331.791 136.272,331.948 136.417,332.140 136.417 C 332.426 136.417,332.441 136.359,332.222 136.095 C 332.074 135.917,331.917 135.772,331.873 135.772 C 331.828 135.772,331.791 135.917,331.791 136.095 M196.019 136.463 C 196.019 136.701,196.613 136.675,196.764 136.430 C 196.833 136.319,196.694 136.243,196.454 136.261 C 196.215 136.279,196.019 136.370,196.019 136.463 M66.703 136.830 C 67.220 137.252,67.563 137.390,67.563 137.176 C 67.563 137.120,67.249 136.920,66.864 136.733 L 66.165 136.392 66.703 136.830 M363.260 159.333 C 363.263 159.806,363.307 159.975,363.358 159.707 C 363.410 159.439,363.408 159.052,363.354 158.846 C 363.300 158.641,363.258 158.860,363.260 159.333 M211.500 159.602 L 210.758 160.409 211.565 159.667 C 212.316 158.977,212.471 158.795,212.307 158.795 C 212.271 158.795,211.908 159.158,211.500 159.602 M328.133 159.179 C 328.133 159.286,328.341 159.558,328.595 159.784 C 329.053 160.191,329.055 160.190,328.809 159.722 C 328.535 159.198,328.133 158.876,328.133 159.179 M191.931 160.153 C 191.931 160.190,192.246 160.505,192.630 160.853 L 193.330 161.485 192.698 160.785 C 192.109 160.134,191.931 159.987,191.931 160.153 M189.953 160.893 C 189.574 161.334,189.290 161.807,189.404 161.807 C 189.447 161.807,189.698 161.517,189.961 161.162 C 190.479 160.460,190.474 160.286,189.953 160.893 M212.103 161.137 C 211.276 161.931,211.360 162.137,212.199 161.371 C 212.577 161.026,212.843 160.704,212.790 160.657 C 212.738 160.609,212.429 160.826,212.103 161.137 M253.906 160.832 C 253.762 161.005,253.681 161.259,253.726 161.394 C 253.772 161.530,253.924 161.388,254.065 161.079 C 254.352 160.448,254.296 160.362,253.906 160.832 M258.285 163.852 C 258.286 165.272,258.321 165.825,258.363 165.080 C 258.405 164.336,258.405 163.174,258.362 162.498 C 258.320 161.822,258.285 162.431,258.285 163.852 M318.562 165.835 L 318.184 166.434 318.682 165.955 C 318.956 165.692,319.126 165.423,319.060 165.357 C 318.994 165.291,318.769 165.506,318.562 165.835 " stroke="none" fill="#0c6c9c" fill-rule="evenodd"></path><path id="path1" d="M26.808 56.749 C 26.568 56.990,26.664 172.745,26.906 172.894 C 27.029 172.971,27.367 172.878,27.656 172.689 C 27.946 172.499,28.208 172.369,28.239 172.400 C 28.270 172.431,28.600 172.239,28.974 171.973 C 29.347 171.708,29.751 171.490,29.873 171.490 C 29.994 171.490,30.221 171.369,30.377 171.221 C 30.534 171.073,30.952 170.807,31.307 170.629 C 31.662 170.452,32.052 170.180,32.174 170.026 C 32.295 169.871,32.537 169.722,32.712 169.694 C 32.886 169.667,33.271 169.493,33.566 169.308 C 34.978 168.424,36.320 167.675,36.955 167.418 C 37.340 167.262,37.655 167.071,37.655 166.993 C 37.655 166.915,37.921 166.732,38.246 166.586 C 38.983 166.256,39.656 165.858,40.106 165.484 C 40.296 165.327,40.452 165.266,40.452 165.351 C 40.452 165.435,40.750 165.253,41.114 164.947 C 41.478 164.640,41.914 164.389,42.082 164.389 C 42.251 164.389,42.388 164.293,42.388 164.174 C 42.388 164.056,42.527 163.959,42.696 163.959 C 42.865 163.959,43.155 163.807,43.341 163.621 C 43.527 163.435,43.679 163.339,43.679 163.409 C 43.679 163.478,44.091 163.273,44.594 162.953 C 45.097 162.634,46.138 162.062,46.907 161.682 C 47.676 161.302,48.503 160.803,48.744 160.573 C 48.985 160.343,50.001 159.728,51.003 159.206 C 52.005 158.684,52.873 158.209,52.932 158.150 C 53.096 157.985,53.824 157.555,54.599 157.163 C 54.984 156.968,55.299 156.734,55.299 156.643 C 55.299 156.551,55.468 156.489,55.675 156.506 C 55.882 156.522,56.029 156.418,56.000 156.275 C 55.972 156.131,56.081 156.064,56.242 156.126 C 56.402 156.187,56.668 156.109,56.831 155.952 C 57.168 155.626,59.950 153.963,60.712 153.631 C 60.989 153.510,61.603 153.167,62.076 152.869 C 62.550 152.571,63.203 152.224,63.529 152.098 C 63.854 151.971,64.120 151.780,64.120 151.673 C 64.120 151.567,64.266 151.479,64.443 151.479 C 64.621 151.479,64.766 151.377,64.766 151.251 C 64.766 151.126,64.855 151.078,64.963 151.145 C 65.071 151.212,65.192 151.183,65.232 151.080 C 65.296 150.915,67.588 149.611,69.392 148.714 C 69.747 148.538,70.086 148.327,70.145 148.247 C 70.204 148.166,70.603 147.936,71.031 147.735 C 71.458 147.534,72.005 147.187,72.245 146.963 C 72.485 146.739,72.726 146.601,72.781 146.656 C 72.836 146.711,73.004 146.608,73.153 146.428 C 73.303 146.248,73.559 146.100,73.722 146.100 C 73.885 146.100,74.019 146.027,74.020 145.939 C 74.021 145.850,74.239 145.673,74.504 145.545 C 75.968 144.839,77.637 143.843,78.121 143.387 C 78.425 143.101,78.726 142.919,78.790 142.982 C 78.854 143.046,79.028 142.951,79.178 142.770 C 79.328 142.590,79.525 142.442,79.617 142.442 C 79.709 142.442,80.303 142.091,80.936 141.662 C 81.569 141.233,82.668 140.607,83.378 140.271 C 84.088 139.935,85.105 139.367,85.637 139.008 C 86.170 138.649,86.719 138.355,86.857 138.355 C 86.995 138.354,87.145 138.241,87.191 138.104 C 87.237 137.966,87.415 137.831,87.586 137.803 C 87.834 137.762,91.190 135.868,92.738 134.896 C 92.916 134.784,93.303 134.575,93.599 134.430 C 93.895 134.285,94.188 134.096,94.252 134.009 C 94.315 133.923,94.720 133.705,95.152 133.524 C 95.583 133.344,95.992 133.106,96.060 132.997 C 96.128 132.887,96.618 132.586,97.150 132.329 C 97.682 132.071,98.117 131.767,98.117 131.652 C 98.117 131.537,98.199 131.494,98.300 131.556 C 98.400 131.618,98.689 131.476,98.941 131.241 C 99.193 131.006,99.426 130.822,99.458 130.832 C 99.566 130.867,100.376 130.532,100.484 130.408 C 100.543 130.341,101.076 130.046,101.668 129.753 C 102.259 129.460,102.913 129.033,103.121 128.804 C 103.329 128.575,103.560 128.448,103.635 128.523 C 103.710 128.598,104.027 128.444,104.340 128.181 C 104.653 127.918,105.390 127.461,105.978 127.165 C 106.566 126.869,107.079 126.555,107.119 126.466 C 107.158 126.377,107.321 126.304,107.481 126.304 C 107.802 126.304,110.017 125.001,110.131 124.744 C 110.170 124.656,110.328 124.583,110.481 124.583 C 110.634 124.583,110.879 124.439,111.025 124.263 C 111.172 124.087,111.377 123.995,111.482 124.060 C 111.587 124.125,111.673 124.087,111.673 123.975 C 111.673 123.864,111.842 123.714,112.049 123.642 C 112.257 123.570,112.910 123.216,113.502 122.854 C 114.094 122.492,114.894 122.054,115.280 121.880 C 115.666 121.705,116.586 121.195,117.324 120.746 C 118.062 120.297,118.835 119.866,119.042 119.788 C 119.250 119.711,119.419 119.542,119.419 119.413 C 119.419 119.284,119.516 119.238,119.634 119.311 C 119.753 119.385,119.849 119.326,119.849 119.181 C 119.849 119.036,119.905 118.973,119.973 119.041 C 120.041 119.109,120.871 118.689,121.818 118.108 C 122.764 117.527,123.629 117.052,123.738 117.052 C 123.848 117.052,123.938 116.950,123.938 116.824 C 123.938 116.699,124.028 116.652,124.138 116.720 C 124.248 116.788,124.396 116.751,124.466 116.638 C 124.536 116.525,125.026 116.215,125.556 115.951 C 126.086 115.686,126.520 115.390,126.520 115.293 C 126.520 115.195,126.641 115.140,126.789 115.169 C 127.889 115.389,126.233 113.939,124.266 112.959 C 123.677 112.666,123.073 112.313,122.923 112.174 C 122.773 112.036,122.093 111.649,121.411 111.314 C 120.730 110.979,120.140 110.632,120.100 110.543 C 120.061 110.455,119.905 110.382,119.753 110.382 C 119.602 110.382,119.113 110.091,118.666 109.736 C 118.219 109.381,117.730 109.091,117.578 109.091 C 117.427 109.091,117.271 109.008,117.231 108.907 C 117.192 108.807,116.337 108.291,115.331 107.762 C 114.325 107.233,113.115 106.558,112.641 106.261 C 112.168 105.965,111.466 105.585,111.081 105.417 C 110.697 105.250,110.382 105.041,110.382 104.953 C 110.382 104.866,109.825 104.500,109.145 104.140 C 108.464 103.781,107.617 103.311,107.262 103.097 C 106.907 102.882,105.853 102.306,104.921 101.815 C 103.988 101.324,102.899 100.674,102.500 100.370 C 102.101 100.066,101.775 99.882,101.775 99.962 C 101.775 100.041,101.620 99.977,101.429 99.820 C 101.239 99.662,100.907 99.432,100.691 99.309 C 100.475 99.186,99.541 98.651,98.616 98.120 C 97.691 97.589,96.640 97.008,96.281 96.829 C 95.923 96.650,95.284 96.237,94.863 95.912 C 94.441 95.586,93.936 95.320,93.740 95.320 C 93.544 95.320,93.384 95.218,93.384 95.092 C 93.384 94.967,93.287 94.924,93.168 94.997 C 93.050 95.070,92.953 95.028,92.953 94.902 C 92.953 94.777,92.816 94.675,92.648 94.675 C 92.481 94.675,92.311 94.602,92.272 94.513 C 92.203 94.358,91.208 93.783,89.403 92.857 C 88.930 92.614,88.494 92.367,88.435 92.307 C 88.375 92.248,88.040 92.054,87.688 91.877 C 87.337 91.700,86.877 91.385,86.666 91.178 C 86.455 90.971,86.138 90.802,85.960 90.802 C 85.783 90.802,85.637 90.699,85.637 90.574 C 85.637 90.448,85.541 90.406,85.422 90.479 C 85.304 90.552,85.207 90.503,85.207 90.371 C 85.207 90.239,85.110 90.190,84.992 90.264 C 84.874 90.337,84.777 90.294,84.777 90.169 C 84.777 90.043,84.632 89.941,84.454 89.941 C 84.276 89.941,84.131 89.838,84.131 89.713 C 84.131 89.588,84.052 89.534,83.956 89.594 C 83.859 89.653,83.351 89.417,82.826 89.069 C 82.301 88.721,81.759 88.436,81.621 88.436 C 81.483 88.435,81.338 88.358,81.298 88.265 C 81.201 88.034,78.942 86.667,78.835 86.774 C 78.788 86.821,78.381 86.512,77.931 86.087 C 77.481 85.662,76.440 84.986,75.619 84.583 C 74.798 84.181,74.077 83.794,74.018 83.723 C 73.959 83.652,73.378 83.312,72.727 82.969 C 72.076 82.625,71.084 82.012,70.522 81.606 C 69.960 81.199,69.500 80.939,69.500 81.026 C 69.500 81.114,69.330 81.032,69.123 80.844 C 68.915 80.657,68.504 80.399,68.208 80.271 C 67.913 80.143,67.283 79.799,66.810 79.507 C 66.337 79.214,65.344 78.669,64.605 78.296 C 63.865 77.923,63.260 77.517,63.260 77.396 C 63.260 77.274,63.199 77.234,63.126 77.308 C 63.052 77.382,62.665 77.193,62.265 76.888 C 61.865 76.583,61.535 76.418,61.532 76.521 C 61.528 76.624,61.407 76.563,61.263 76.385 C 61.118 76.208,60.662 75.896,60.247 75.693 C 59.833 75.490,59.010 75.033,58.419 74.677 C 56.813 73.713,55.640 73.071,55.467 73.060 C 55.382 73.054,55.116 72.882,54.875 72.676 C 54.635 72.470,54.436 72.373,54.435 72.460 C 54.433 72.548,54.360 72.522,54.273 72.403 C 54.090 72.151,52.360 71.006,52.163 71.006 C 52.090 71.006,51.773 70.828,51.459 70.611 C 51.145 70.394,50.452 70.046,49.920 69.839 C 49.388 69.631,48.904 69.397,48.844 69.319 C 48.696 69.125,46.706 67.778,46.567 67.778 C 46.506 67.778,45.651 67.294,44.668 66.703 C 43.685 66.111,42.770 65.627,42.634 65.627 C 42.499 65.627,42.388 65.530,42.388 65.412 C 42.388 65.293,42.314 65.221,42.222 65.250 C 42.131 65.280,41.381 64.875,40.555 64.350 C 39.729 63.826,38.924 63.373,38.765 63.344 C 38.607 63.316,38.304 63.135,38.091 62.943 C 37.879 62.751,37.040 62.248,36.228 61.825 C 35.415 61.402,34.508 60.891,34.212 60.690 C 33.916 60.488,33.214 60.112,32.652 59.854 C 32.090 59.596,31.630 59.278,31.630 59.147 C 31.630 59.017,31.499 58.961,31.338 59.022 C 31.178 59.084,30.795 58.900,30.487 58.615 C 30.179 58.329,29.858 58.096,29.774 58.096 C 29.689 58.096,29.467 57.957,29.280 57.788 C 28.817 57.370,26.966 56.591,26.808 56.749 M167.733 101.668 L 167.741 136.525 181.557 136.574 C 190.129 136.605,195.374 136.546,195.374 136.420 C 195.374 136.308,195.785 136.227,196.288 136.240 C 196.791 136.253,197.493 136.205,197.848 136.135 C 199.594 135.788,201.233 135.589,201.498 135.691 C 201.661 135.754,202.044 135.641,202.349 135.441 C 202.655 135.241,202.905 135.140,202.905 135.217 C 202.905 135.294,203.102 135.251,203.343 135.122 C 203.585 134.993,204.119 134.855,204.531 134.815 C 204.943 134.775,205.408 134.636,205.564 134.506 C 205.721 134.376,205.920 134.340,206.007 134.427 C 206.094 134.514,206.262 134.411,206.381 134.198 C 206.545 133.906,206.667 133.869,206.884 134.049 C 207.081 134.213,207.213 134.217,207.309 134.061 C 207.386 133.937,207.642 133.835,207.879 133.835 C 208.116 133.835,208.250 133.739,208.176 133.620 C 208.057 133.427,208.337 133.312,208.765 133.379 C 208.853 133.392,209.482 133.046,210.164 132.610 C 210.846 132.174,211.428 131.835,211.458 131.858 C 211.662 132.013,211.938 131.852,211.814 131.650 C 211.718 131.496,211.755 131.460,211.910 131.557 C 212.179 131.722,212.867 131.174,212.656 130.963 C 212.586 130.893,212.725 130.874,212.964 130.920 C 213.246 130.975,213.624 130.764,214.038 130.322 C 214.390 129.947,215.030 129.364,215.461 129.026 C 215.903 128.680,216.182 128.305,216.102 128.165 C 216.025 128.029,216.037 127.986,216.129 128.069 C 216.305 128.228,216.998 127.647,216.998 127.342 C 216.998 127.245,217.069 127.189,217.156 127.219 C 217.347 127.284,218.092 126.262,218.019 126.036 C 217.990 125.947,218.080 125.874,218.218 125.874 C 218.356 125.874,218.405 125.810,218.327 125.732 C 218.248 125.654,218.374 125.458,218.605 125.296 C 218.840 125.131,218.971 124.862,218.903 124.685 C 218.836 124.511,218.877 124.368,218.995 124.368 C 219.191 124.368,220.007 122.895,219.949 122.647 C 219.935 122.587,220.052 122.344,220.208 122.106 C 220.364 121.867,220.566 121.335,220.655 120.922 C 220.745 120.510,220.926 120.103,221.059 120.019 C 221.474 119.756,221.418 114.214,220.997 113.862 C 220.810 113.706,220.777 113.639,220.925 113.714 C 221.073 113.789,221.194 113.747,221.194 113.622 C 221.194 113.497,221.059 113.394,220.894 113.394 C 220.729 113.394,220.591 113.177,220.586 112.910 C 220.565 111.629,220.089 110.296,219.539 109.975 C 219.325 109.851,219.272 109.747,219.421 109.743 C 219.635 109.738,219.637 109.649,219.432 109.320 C 219.289 109.091,219.115 108.939,219.045 108.982 C 218.976 109.025,218.785 108.759,218.623 108.391 C 218.460 108.023,218.124 107.490,217.878 107.206 C 217.631 106.922,217.477 106.654,217.536 106.610 C 217.747 106.453,215.929 104.780,215.659 104.884 C 215.508 104.942,215.385 104.838,215.385 104.654 C 215.385 104.289,214.567 103.515,214.169 103.504 C 214.033 103.500,213.583 103.158,213.168 102.743 C 212.754 102.329,212.272 101.990,212.097 101.990 C 211.922 101.990,211.659 101.845,211.512 101.668 C 211.188 101.277,210.786 101.237,210.977 101.614 C 211.052 101.762,210.961 101.695,210.774 101.465 C 210.588 101.235,210.436 101.129,210.436 101.229 C 210.436 101.330,210.251 101.244,210.024 101.039 C 209.798 100.834,209.483 100.644,209.325 100.616 C 208.679 100.502,208.069 100.229,208.069 100.053 C 208.069 99.950,207.754 99.836,207.370 99.798 C 206.604 99.725,206.495 99.316,207.229 99.275 C 207.480 99.261,207.748 99.164,207.824 99.060 C 207.975 98.851,209.435 98.003,209.521 98.073 C 209.699 98.219,210.008 98.081,209.899 97.905 C 209.821 97.778,209.918 97.749,210.137 97.834 C 210.386 97.929,210.456 97.894,210.352 97.726 C 210.252 97.563,210.314 97.521,210.532 97.605 C 210.716 97.675,210.866 97.620,210.866 97.482 C 210.866 97.344,210.963 97.291,211.081 97.364 C 211.200 97.437,211.296 97.340,211.296 97.149 C 211.296 96.958,211.393 96.861,211.512 96.934 C 211.630 97.007,211.727 96.964,211.727 96.839 C 211.727 96.714,211.858 96.611,212.018 96.611 C 212.437 96.611,215.675 93.338,215.699 92.892 C 215.703 92.798,215.815 92.653,215.946 92.569 C 216.394 92.281,217.105 90.732,217.170 89.903 C 217.185 89.704,217.255 89.577,217.324 89.620 C 217.673 89.836,218.010 89.242,218.071 88.303 C 218.109 87.725,218.166 87.203,218.198 87.144 C 218.325 86.911,218.295 82.232,218.168 82.311 C 218.093 82.357,218.020 82.132,218.006 81.811 C 217.963 80.825,217.781 80.217,217.402 79.798 C 217.203 79.578,217.122 79.398,217.223 79.398 C 217.324 79.398,217.291 79.281,217.149 79.139 C 217.007 78.997,216.888 78.731,216.884 78.548 C 216.875 78.143,216.157 77.246,215.841 77.246 C 215.716 77.246,215.666 77.108,215.731 76.940 C 215.799 76.762,215.652 76.529,215.383 76.384 C 215.127 76.247,214.966 76.086,215.026 76.027 C 215.085 75.968,214.972 75.740,214.775 75.520 C 214.578 75.301,214.223 74.874,213.986 74.572 C 213.749 74.270,213.435 74.022,213.287 74.021 C 213.139 74.019,213.018 73.921,213.018 73.803 C 213.018 73.685,212.878 73.588,212.707 73.588 C 212.536 73.588,212.261 73.395,212.096 73.159 C 211.931 72.923,211.732 72.794,211.654 72.872 C 211.576 72.950,211.512 72.853,211.512 72.656 C 211.512 72.458,211.366 72.297,211.189 72.297 C 211.011 72.297,210.866 72.215,210.866 72.116 C 210.866 72.016,210.430 71.710,209.898 71.436 C 209.365 71.162,208.930 70.841,208.930 70.721 C 208.930 70.602,208.870 70.564,208.796 70.637 C 208.723 70.710,208.531 70.638,208.370 70.477 C 208.208 70.316,207.881 70.235,207.642 70.297 C 207.339 70.376,207.208 70.306,207.208 70.063 C 207.208 69.871,207.136 69.726,207.047 69.740 C 206.958 69.754,206.837 69.747,206.778 69.724 C 206.719 69.701,206.525 69.644,206.347 69.598 C 205.607 69.404,203.415 68.616,203.066 68.419 C 202.794 68.264,202.689 68.280,202.686 68.476 C 202.684 68.687,202.646 68.689,202.516 68.483 C 202.424 68.338,202.159 68.190,201.927 68.154 C 201.696 68.118,201.388 68.015,201.244 67.925 C 201.100 67.835,200.610 67.723,200.154 67.676 C 199.698 67.628,199.187 67.559,199.017 67.522 C 198.841 67.484,198.733 67.594,198.766 67.778 C 198.815 68.059,198.787 68.058,198.551 67.771 C 198.401 67.589,198.105 67.476,197.892 67.519 C 197.679 67.563,197.369 67.486,197.203 67.348 C 197.037 67.211,196.631 67.116,196.299 67.138 C 195.227 67.210,194.911 67.144,195.072 66.884 C 195.175 66.717,195.130 66.695,194.934 66.816 C 194.559 67.048,193.653 67.091,193.789 66.870 C 193.846 66.778,193.688 66.703,193.437 66.703 C 193.148 66.703,193.038 66.793,193.135 66.951 C 193.232 67.107,193.194 67.141,193.033 67.041 C 192.893 66.955,187.141 66.867,180.251 66.847 L 167.725 66.810 167.733 101.668 M331.969 66.991 C 331.819 67.152,331.524 67.238,331.314 67.183 C 331.103 67.128,330.931 67.186,330.931 67.313 C 330.931 67.443,330.651 67.507,330.285 67.461 C 329.930 67.416,329.640 67.480,329.640 67.602 C 329.640 67.734,329.413 67.768,329.084 67.685 C 328.727 67.596,328.577 67.625,328.664 67.767 C 328.744 67.895,328.670 67.938,328.490 67.869 C 328.319 67.804,327.694 68.004,327.101 68.314 C 326.508 68.624,325.796 68.893,325.518 68.912 C 325.241 68.931,324.881 69.076,324.719 69.234 C 324.556 69.392,324.147 69.576,323.809 69.644 C 323.471 69.711,323.083 69.900,322.948 70.064 C 322.812 70.227,322.574 70.360,322.417 70.360 C 322.261 70.360,321.992 70.561,321.821 70.807 C 321.594 71.130,321.463 71.180,321.345 70.989 C 321.224 70.793,321.111 70.823,320.907 71.102 C 320.755 71.310,320.528 71.416,320.402 71.338 C 320.275 71.260,320.172 71.289,320.172 71.403 C 320.172 71.516,319.904 71.703,319.577 71.817 C 319.249 71.931,318.630 72.376,318.200 72.806 C 317.770 73.236,317.302 73.588,317.160 73.588 C 317.018 73.588,316.621 73.889,316.278 74.256 C 315.934 74.624,315.654 74.854,315.654 74.768 C 315.654 74.682,315.509 74.731,315.333 74.877 C 315.157 75.023,315.075 75.244,315.151 75.367 C 315.227 75.490,315.192 75.531,315.073 75.457 C 314.954 75.383,314.673 75.472,314.448 75.655 C 314.224 75.837,314.185 75.913,314.363 75.822 C 314.640 75.680,314.644 75.708,314.390 76.021 C 314.228 76.221,313.965 76.385,313.806 76.385 C 313.647 76.385,313.403 76.597,313.264 76.857 C 312.918 77.504,311.999 78.474,311.981 78.212 C 311.972 78.095,311.890 78.193,311.798 78.429 C 311.705 78.666,311.494 78.864,311.329 78.869 C 311.163 78.875,311.049 78.989,311.076 79.123 C 311.103 79.258,310.829 79.616,310.468 79.921 C 310.107 80.225,309.867 80.473,309.935 80.473 C 310.003 80.473,309.875 80.657,309.651 80.882 C 309.426 81.106,308.970 81.760,308.638 82.334 C 308.305 82.908,307.858 83.506,307.644 83.662 C 307.430 83.818,307.304 84.026,307.365 84.123 C 307.425 84.221,307.324 84.359,307.140 84.430 C 306.955 84.501,306.865 84.656,306.938 84.775 C 307.012 84.894,306.964 84.992,306.832 84.992 C 306.699 84.992,306.651 85.089,306.724 85.207 C 306.797 85.325,306.749 85.422,306.616 85.422 C 306.484 85.422,306.440 85.526,306.518 85.652 C 306.596 85.778,306.503 85.996,306.313 86.136 C 306.122 86.276,305.921 86.625,305.866 86.913 C 305.811 87.200,305.691 87.490,305.599 87.558 C 305.361 87.735,304.884 88.702,304.791 89.197 C 304.748 89.429,304.698 89.618,304.680 89.618 C 304.662 89.618,304.617 89.763,304.581 89.941 C 304.544 90.118,304.389 90.699,304.236 91.232 C 304.082 91.764,303.938 92.273,303.915 92.361 C 303.892 92.450,303.849 92.595,303.821 92.684 C 303.792 92.773,303.780 92.918,303.794 93.007 C 303.808 93.096,303.741 93.168,303.646 93.168 C 303.551 93.168,303.449 93.576,303.420 94.075 C 303.390 94.573,303.275 95.090,303.164 95.224 C 303.053 95.358,303.022 95.526,303.094 95.599 C 303.352 95.857,302.951 96.869,302.638 96.749 C 302.438 96.673,302.376 96.739,302.455 96.945 C 302.520 97.116,302.668 97.257,302.782 97.257 C 302.896 97.257,302.845 97.401,302.669 97.577 C 302.322 97.924,302.219 105.863,302.562 105.863 C 302.788 105.863,303.342 107.789,303.444 108.929 C 303.473 109.254,303.575 109.521,303.671 109.521 C 303.766 109.521,303.794 109.603,303.732 109.704 C 303.585 109.942,304.456 113.033,304.717 113.199 C 304.828 113.269,304.901 113.414,304.881 113.522 C 304.861 113.629,304.863 113.765,304.886 113.825 C 304.909 113.884,304.964 114.124,305.007 114.359 C 305.051 114.593,305.183 114.817,305.302 114.857 C 305.420 114.896,305.470 115.049,305.413 115.197 C 305.356 115.345,305.551 115.726,305.845 116.044 C 306.140 116.362,306.264 116.623,306.122 116.625 C 305.958 116.627,305.943 116.686,306.081 116.787 C 306.200 116.873,306.491 117.316,306.726 117.770 C 306.962 118.224,307.331 118.691,307.548 118.809 C 307.772 118.930,307.889 119.158,307.819 119.339 C 307.751 119.518,307.790 119.599,307.910 119.525 C 308.027 119.453,308.123 119.576,308.123 119.799 C 308.123 120.022,308.365 120.432,308.661 120.710 C 308.956 120.988,309.198 121.299,309.198 121.402 C 309.198 121.604,309.424 121.900,310.307 122.859 C 310.620 123.200,310.825 123.531,310.761 123.594 C 310.697 123.658,310.900 123.808,311.213 123.926 C 311.525 124.045,311.781 124.263,311.781 124.410 C 311.781 124.837,315.010 127.834,315.294 127.671 C 315.433 127.591,315.475 127.605,315.389 127.701 C 315.178 127.934,316.079 128.700,316.360 128.526 C 316.481 128.451,316.521 128.487,316.447 128.606 C 316.295 128.852,317.057 129.572,317.971 130.044 C 318.311 130.220,318.715 130.515,318.867 130.699 C 319.020 130.883,319.232 130.980,319.337 130.915 C 319.443 130.849,319.588 130.947,319.658 131.131 C 319.729 131.315,319.870 131.415,319.972 131.352 C 320.073 131.289,320.346 131.427,320.577 131.658 C 320.808 131.889,321.048 132.027,321.110 131.965 C 321.172 131.903,321.543 132.080,321.934 132.358 C 322.325 132.637,322.759 132.838,322.899 132.806 C 323.038 132.774,323.223 132.862,323.309 133.002 C 323.414 133.172,323.373 133.199,323.185 133.082 C 322.998 132.967,322.955 132.992,323.056 133.157 C 323.141 133.293,323.325 133.406,323.466 133.406 C 323.607 133.407,324.003 133.554,324.346 133.733 C 324.689 133.912,325.020 134.008,325.082 133.946 C 325.143 133.885,325.371 133.995,325.588 134.191 C 325.848 134.427,325.982 134.458,325.982 134.284 C 325.982 134.107,326.093 134.131,326.320 134.358 C 326.632 134.670,327.096 134.801,327.576 134.710 C 327.683 134.690,327.829 134.753,327.899 134.850 C 328.131 135.174,329.179 135.538,329.628 135.451 C 329.873 135.404,330.071 135.480,330.073 135.623 C 330.075 135.778,330.159 135.751,330.285 135.557 C 330.437 135.322,330.495 135.311,330.497 135.516 C 330.499 135.671,330.590 135.742,330.701 135.674 C 330.811 135.605,330.958 135.642,331.028 135.755 C 331.098 135.868,331.340 135.925,331.567 135.881 C 331.793 135.838,332.094 135.940,332.234 136.110 C 332.522 136.457,344.486 136.582,344.486 136.238 C 344.486 136.140,344.607 136.048,344.755 136.035 C 345.824 135.942,346.635 135.791,346.983 135.621 C 347.208 135.511,347.536 135.430,347.714 135.442 C 347.891 135.454,348.087 135.393,348.150 135.307 C 348.212 135.220,348.599 135.091,349.010 135.019 C 349.422 134.947,349.788 134.802,349.826 134.697 C 349.863 134.591,350.048 134.565,350.237 134.637 C 350.444 134.717,350.527 134.681,350.445 134.548 C 350.362 134.414,350.518 134.349,350.840 134.385 C 351.132 134.417,351.372 134.376,351.372 134.294 C 351.372 134.212,351.617 134.124,351.917 134.099 C 352.216 134.075,352.670 133.860,352.925 133.622 C 353.181 133.384,353.565 133.190,353.779 133.190 C 353.994 133.190,354.169 133.093,354.169 132.975 C 354.169 132.856,354.242 132.779,354.330 132.802 C 354.598 132.873,355.460 132.527,355.460 132.349 C 355.460 132.258,355.858 132.051,356.345 131.891 C 356.832 131.730,357.340 131.424,357.473 131.211 C 357.606 130.997,357.825 130.823,357.960 130.823 C 358.094 130.823,358.324 130.679,358.470 130.503 C 358.617 130.326,358.812 130.229,358.904 130.286 C 358.997 130.343,359.128 130.246,359.196 130.069 C 359.264 129.892,359.473 129.747,359.662 129.747 C 359.868 129.747,359.942 129.647,359.848 129.495 C 359.747 129.332,359.805 129.287,360.012 129.366 C 360.195 129.436,360.442 129.314,360.587 129.080 C 360.728 128.855,360.952 128.671,361.085 128.671 C 361.217 128.671,361.628 128.354,361.997 127.966 C 362.366 127.578,363.036 126.982,363.485 126.641 C 363.950 126.290,364.255 125.899,364.192 125.736 C 364.132 125.578,364.151 125.463,364.236 125.481 C 364.547 125.545,365.136 125.177,365.021 124.991 C 364.956 124.885,365.005 124.798,365.130 124.798 C 365.255 124.798,365.358 124.660,365.358 124.490 C 365.358 124.320,365.551 124.120,365.788 124.045 C 366.025 123.970,366.218 123.785,366.218 123.634 C 366.218 123.482,366.411 123.184,366.647 122.971 C 366.882 122.758,367.335 122.138,367.653 121.593 C 367.971 121.048,368.354 120.506,368.504 120.387 C 368.654 120.269,368.806 120.032,368.842 119.861 C 368.878 119.690,369.102 119.351,369.338 119.108 C 369.980 118.449,370.069 116.837,369.464 116.837 C 369.218 116.837,369.016 116.934,369.016 117.052 C 369.016 117.191,366.864 117.267,362.991 117.267 C 359.027 117.267,356.966 117.192,356.966 117.047 C 356.966 116.926,356.741 116.975,356.465 117.156 C 356.189 117.336,355.891 117.411,355.801 117.322 C 355.712 117.233,355.672 117.264,355.711 117.391 C 355.750 117.519,355.420 117.977,354.976 118.410 C 354.532 118.842,354.169 119.295,354.169 119.415 C 354.169 119.536,354.024 119.634,353.846 119.634 C 353.669 119.634,353.523 119.731,353.523 119.849 C 353.523 119.968,353.378 120.065,353.201 120.065 C 353.023 120.065,352.878 120.226,352.878 120.423 C 352.878 120.620,352.824 120.728,352.757 120.661 C 352.691 120.595,352.417 120.748,352.149 121.002 C 351.352 121.757,350.734 122.216,350.517 122.216 C 350.405 122.216,350.115 122.428,349.875 122.686 C 349.634 122.945,349.231 123.172,348.979 123.190 C 348.728 123.209,348.431 123.387,348.320 123.585 C 348.209 123.784,348.021 123.887,347.903 123.814 C 347.622 123.641,346.395 124.149,346.538 124.379 C 346.598 124.477,346.387 124.509,346.070 124.452 C 345.750 124.394,345.423 124.460,345.336 124.600 C 345.250 124.740,344.806 124.878,344.349 124.907 C 343.892 124.936,343.518 124.982,343.518 125.008 C 343.518 125.130,342.038 125.232,340.080 125.244 C 338.900 125.251,337.810 125.359,337.660 125.484 C 337.468 125.643,337.386 125.643,337.386 125.485 C 337.386 125.361,336.974 125.263,336.471 125.268 C 335.477 125.278,334.693 125.160,334.104 124.911 C 333.897 124.824,333.607 124.798,333.459 124.855 C 333.311 124.911,332.948 124.860,332.652 124.741 C 332.356 124.622,331.925 124.504,331.695 124.479 C 331.464 124.454,331.238 124.322,331.193 124.186 C 331.147 124.049,330.888 123.938,330.616 123.938 C 330.345 123.938,330.010 123.802,329.873 123.637 C 329.736 123.472,329.289 123.274,328.879 123.197 C 328.469 123.120,328.133 122.981,328.133 122.887 C 328.133 122.793,327.867 122.597,327.542 122.451 C 326.813 122.126,325.391 121.180,324.763 120.602 C 324.506 120.366,323.900 119.887,323.417 119.539 C 322.934 119.191,322.539 118.763,322.539 118.589 C 322.539 118.414,322.475 118.335,322.397 118.413 C 322.203 118.608,321.655 118.125,321.801 117.888 C 321.866 117.784,321.768 117.698,321.583 117.698 C 321.399 117.698,321.272 117.625,321.302 117.536 C 321.331 117.448,321.298 117.375,321.227 117.375 C 320.970 117.375,320.395 116.784,320.495 116.622 C 320.551 116.530,320.263 116.091,319.855 115.645 C 319.446 115.199,319.163 114.752,319.225 114.652 C 319.286 114.552,319.189 114.470,319.008 114.470 C 318.804 114.470,318.727 114.347,318.803 114.147 C 318.871 113.970,318.844 113.825,318.741 113.825 C 318.639 113.825,318.419 113.510,318.253 113.125 C 318.086 112.741,317.774 112.198,317.560 111.920 C 317.346 111.642,317.110 111.088,317.035 110.691 C 316.961 110.293,316.770 109.860,316.612 109.728 C 316.454 109.597,316.384 109.336,316.456 109.147 C 316.553 108.894,316.508 108.853,316.282 108.989 C 316.021 109.147,316.020 109.120,316.272 108.809 C 316.530 108.491,316.476 108.374,316.084 108.402 C 316.025 108.406,315.984 107.987,315.993 107.469 C 316.004 106.894,315.927 106.580,315.795 106.662 C 315.670 106.739,315.635 106.654,315.710 106.458 C 315.781 106.272,315.775 106.057,315.698 105.979 C 315.425 105.707,315.288 99.926,315.528 98.841 C 315.610 98.469,315.683 97.549,315.691 96.796 C 315.700 95.887,315.816 95.301,316.036 95.050 C 316.219 94.842,316.305 94.609,316.228 94.532 C 316.151 94.455,316.182 94.278,316.297 94.140 C 316.412 94.001,316.549 93.653,316.602 93.367 C 316.654 93.080,316.712 92.846,316.730 92.846 C 316.748 92.846,316.798 92.654,316.842 92.419 C 316.885 92.185,317.013 91.962,317.125 91.925 C 317.237 91.887,317.280 91.668,317.219 91.437 C 317.159 91.206,317.215 91.017,317.344 91.017 C 317.473 91.017,317.729 90.726,317.913 90.371 C 318.096 90.016,318.200 89.726,318.144 89.726 C 318.087 89.726,318.282 89.466,318.576 89.148 C 318.871 88.830,319.066 88.451,319.010 88.305 C 318.954 88.159,319.042 87.988,319.206 87.926 C 319.370 87.863,319.666 87.498,319.864 87.115 C 320.062 86.732,320.648 86.013,321.166 85.516 C 321.685 85.019,322.109 84.505,322.109 84.372 C 322.109 84.240,322.302 84.131,322.539 84.131 C 322.782 84.131,322.969 83.988,322.969 83.802 C 322.969 83.621,323.139 83.410,323.346 83.334 C 323.553 83.257,323.956 82.946,324.242 82.641 C 324.528 82.336,325.109 81.874,325.533 81.614 C 327.016 80.705,328.027 80.172,328.187 80.215 C 328.276 80.239,328.349 80.168,328.349 80.058 C 328.349 79.875,329.055 79.542,329.496 79.516 C 329.594 79.510,329.802 79.331,329.958 79.118 C 330.115 78.902,330.561 78.709,330.962 78.682 C 331.359 78.656,331.811 78.554,331.967 78.456 C 332.123 78.359,332.308 78.336,332.378 78.406 C 332.448 78.476,332.635 78.425,332.794 78.293 C 332.952 78.162,333.084 78.138,333.086 78.242 C 333.087 78.345,333.183 78.284,333.297 78.107 C 333.461 77.853,333.507 77.847,333.509 78.079 C 333.512 78.317,333.575 78.322,333.835 78.107 C 334.013 77.959,334.158 77.897,334.158 77.967 C 334.158 78.038,334.424 77.992,334.750 77.865 C 335.075 77.738,336.203 77.592,337.256 77.541 C 338.309 77.489,339.246 77.400,339.339 77.343 C 339.432 77.286,339.571 77.342,339.649 77.468 C 339.727 77.594,339.952 77.681,340.148 77.662 C 341.172 77.561,342.990 77.701,342.884 77.873 C 342.817 77.980,342.998 78.043,343.286 78.011 C 343.574 77.980,343.934 78.031,344.087 78.126 C 344.239 78.220,344.491 78.192,344.645 78.064 C 344.861 77.885,344.896 77.910,344.796 78.170 C 344.692 78.443,344.794 78.494,345.311 78.428 C 345.752 78.373,345.997 78.453,346.085 78.682 C 346.170 78.904,346.392 78.982,346.748 78.914 C 347.043 78.858,347.283 78.877,347.283 78.957 C 347.283 79.037,348.282 79.609,349.502 80.227 C 350.722 80.846,351.856 81.541,352.024 81.773 C 352.191 82.005,352.441 82.195,352.580 82.195 C 352.718 82.195,352.890 82.346,352.961 82.531 C 353.033 82.719,353.200 82.800,353.340 82.713 C 353.486 82.623,353.532 82.652,353.451 82.783 C 353.317 83.001,353.626 83.376,354.061 83.521 C 354.180 83.561,354.248 83.678,354.214 83.781 C 354.179 83.884,354.306 83.910,354.494 83.837 C 354.683 83.765,354.785 83.789,354.722 83.891 C 354.659 83.994,354.823 84.307,355.087 84.588 L 355.568 85.100 362.077 84.992 C 365.657 84.933,368.586 84.948,368.585 85.026 C 368.585 85.103,368.779 85.116,369.016 85.054 C 369.260 84.990,369.446 84.761,369.446 84.524 C 369.446 84.294,369.349 84.166,369.231 84.239 C 369.112 84.312,369.016 84.269,369.016 84.144 C 369.016 84.019,369.106 83.916,369.216 83.916 C 369.326 83.916,368.966 83.246,368.414 82.427 C 367.863 81.608,367.337 80.985,367.246 81.041 C 367.154 81.098,367.079 80.958,367.079 80.731 C 367.079 80.504,366.747 79.966,366.340 79.535 C 365.934 79.104,365.647 78.752,365.703 78.752 C 365.759 78.752,365.421 78.365,364.953 77.891 C 364.484 77.418,364.165 77.027,364.245 77.023 C 364.324 77.019,364.184 76.898,363.932 76.754 C 363.680 76.610,363.216 76.183,362.901 75.805 C 362.585 75.427,361.968 74.904,361.529 74.641 C 361.091 74.379,360.554 73.963,360.336 73.715 C 360.119 73.468,360.005 73.410,360.083 73.588 C 360.161 73.765,359.976 73.620,359.672 73.265 C 359.369 72.910,359.119 72.711,359.119 72.822 C 359.118 72.934,358.997 72.866,358.849 72.673 C 358.701 72.479,358.435 72.291,358.257 72.255 C 358.080 72.219,357.770 72.011,357.569 71.793 C 357.368 71.575,357.109 71.456,356.992 71.528 C 356.876 71.600,356.629 71.442,356.443 71.177 C 356.257 70.912,356.105 70.780,356.105 70.884 C 356.105 70.988,355.928 70.912,355.711 70.716 C 355.495 70.520,355.253 70.424,355.174 70.503 C 355.094 70.583,355.030 70.529,355.030 70.384 C 355.030 70.239,354.933 70.180,354.814 70.253 C 354.696 70.326,354.599 70.278,354.599 70.145 C 354.599 70.013,354.502 69.965,354.384 70.038 C 354.266 70.111,354.169 70.089,354.169 69.989 C 354.169 69.888,353.960 69.791,353.704 69.771 C 353.449 69.752,353.182 69.659,353.112 69.564 C 352.835 69.189,352.014 68.869,351.668 69.002 C 351.398 69.105,351.348 69.066,351.479 68.854 C 351.609 68.644,351.561 68.603,351.299 68.703 C 351.102 68.779,350.941 68.750,350.941 68.639 C 350.941 68.528,350.796 68.493,350.619 68.561 C 350.441 68.629,350.296 68.572,350.296 68.434 C 350.296 68.296,350.207 68.238,350.099 68.305 C 349.991 68.372,349.853 68.305,349.793 68.156 C 349.716 67.963,349.679 67.975,349.667 68.196 C 349.653 68.451,349.602 68.445,349.381 68.164 C 349.052 67.745,348.008 67.385,348.248 67.773 C 348.342 67.924,348.129 67.885,347.731 67.680 C 347.360 67.488,346.951 67.395,346.823 67.474 C 346.695 67.554,346.528 67.533,346.453 67.429 C 346.031 66.849,345.175 66.771,338.848 66.736 C 333.529 66.707,332.188 66.756,331.969 66.991 M233.244 101.990 L 233.244 135.134 249.379 135.122 C 258.253 135.116,265.491 135.042,265.463 134.957 C 265.435 134.873,265.485 134.781,265.574 134.752 C 265.663 134.724,266.051 134.570,266.435 134.409 C 266.819 134.249,267.303 134.142,267.510 134.172 C 267.717 134.203,267.886 134.134,267.886 134.019 C 267.886 133.904,267.983 133.870,268.101 133.943 C 268.219 134.016,268.316 133.963,268.316 133.825 C 268.316 133.687,268.465 133.631,268.648 133.701 C 268.830 133.771,269.144 133.740,269.347 133.632 C 269.549 133.525,269.860 133.380,270.038 133.311 C 270.215 133.243,270.699 132.981,271.114 132.731 C 271.840 132.292,272.195 132.165,272.794 132.131 C 272.949 132.121,273.018 132.022,272.949 131.909 C 272.879 131.796,273.201 131.602,273.664 131.477 C 274.127 131.352,274.626 131.106,274.773 130.929 C 274.919 130.752,275.173 130.608,275.336 130.608 C 275.499 130.608,275.632 130.505,275.632 130.380 C 275.632 130.255,275.719 130.206,275.825 130.271 C 275.931 130.337,276.075 130.239,276.146 130.055 C 276.217 129.871,276.373 129.781,276.493 129.855 C 276.696 129.981,277.743 129.361,278.392 128.731 C 278.549 128.578,278.888 128.342,279.145 128.205 C 279.402 128.069,279.740 127.778,279.896 127.558 C 280.052 127.338,280.260 127.207,280.358 127.268 C 280.456 127.328,280.981 126.938,281.527 126.401 C 282.072 125.863,282.517 125.486,282.517 125.562 C 282.517 125.817,284.070 123.845,284.257 123.351 C 284.360 123.082,284.548 122.862,284.677 122.862 C 284.805 122.862,284.861 122.782,284.800 122.685 C 284.740 122.588,284.880 122.347,285.111 122.149 C 285.341 121.952,285.530 121.638,285.530 121.453 C 285.530 121.267,285.627 121.175,285.745 121.248 C 285.939 121.368,286.053 121.085,285.986 120.656 C 285.972 120.568,286.045 120.495,286.148 120.495 C 286.252 120.495,286.396 120.198,286.469 119.835 C 286.542 119.468,286.697 119.235,286.818 119.310 C 286.938 119.384,287.036 119.348,287.036 119.231 C 287.036 119.113,287.140 118.744,287.266 118.411 C 287.393 118.078,287.497 117.757,287.497 117.698 C 287.497 117.639,287.623 117.445,287.778 117.267 C 287.932 117.090,288.028 116.757,287.991 116.529 C 287.954 116.300,288.118 115.840,288.355 115.507 C 288.592 115.173,288.728 114.900,288.657 114.900 C 288.585 114.900,288.622 114.724,288.737 114.508 C 288.853 114.291,289.003 113.653,289.071 113.089 C 289.138 112.525,289.277 111.903,289.379 111.707 C 289.480 111.511,289.529 111.137,289.486 110.877 C 289.444 110.617,289.495 110.350,289.601 110.285 C 289.706 110.220,289.741 109.968,289.678 109.726 C 289.605 109.447,289.711 109.172,289.967 108.973 C 290.319 108.700,290.322 108.677,289.995 108.791 C 289.784 108.864,289.618 108.817,289.618 108.684 C 289.618 108.553,289.721 108.445,289.846 108.445 C 289.971 108.445,290.014 108.349,289.941 108.230 C 289.868 108.112,289.891 108.015,289.993 108.015 C 290.218 108.015,290.222 96.067,289.996 95.842 C 289.909 95.754,289.957 95.534,290.104 95.352 C 290.322 95.083,290.317 95.055,290.074 95.201 C 289.868 95.325,289.809 95.288,289.882 95.081 C 289.940 94.917,289.892 94.540,289.776 94.244 C 289.661 93.948,289.533 93.513,289.493 93.276 C 289.452 93.039,289.370 92.555,289.310 92.200 C 289.249 91.845,289.062 91.052,288.894 90.438 C 288.726 89.824,288.642 89.267,288.709 89.201 C 288.775 89.134,288.706 89.080,288.555 89.080 C 288.404 89.080,288.334 88.941,288.400 88.771 C 288.465 88.601,288.319 88.209,288.075 87.899 C 287.832 87.589,287.692 87.277,287.765 87.204 C 287.837 87.131,287.897 87.201,287.897 87.359 C 287.897 87.517,287.950 87.592,288.016 87.527 C 288.081 87.461,287.941 87.089,287.704 86.699 C 287.467 86.309,287.323 85.910,287.384 85.812 C 287.444 85.715,287.350 85.579,287.174 85.512 C 286.972 85.434,286.890 85.198,286.950 84.868 C 287.016 84.503,286.946 84.346,286.717 84.346 C 286.538 84.346,286.402 84.274,286.416 84.185 C 286.430 84.096,286.418 83.951,286.389 83.862 C 286.360 83.774,286.320 83.580,286.300 83.432 C 286.280 83.284,286.147 83.187,286.004 83.217 C 285.862 83.246,285.745 83.136,285.745 82.970 C 285.745 82.287,282.452 78.107,281.914 78.107 C 281.758 78.107,281.691 78.010,281.764 77.891 C 281.838 77.773,281.750 77.676,281.569 77.676 C 281.389 77.676,281.138 77.483,281.011 77.246 C 280.885 77.009,280.639 76.815,280.466 76.815 C 280.292 76.815,280.175 76.743,280.204 76.654 C 280.234 76.565,280.183 76.471,280.092 76.444 C 280.000 76.417,279.681 76.151,279.383 75.852 C 279.084 75.554,278.723 75.298,278.581 75.284 C 278.438 75.271,278.176 75.247,277.999 75.231 C 277.821 75.215,277.700 75.081,277.730 74.934 C 277.759 74.786,277.323 74.453,276.761 74.193 C 276.199 73.932,275.678 73.629,275.602 73.519 C 275.527 73.408,275.375 73.373,275.265 73.441 C 275.155 73.509,274.929 73.376,274.763 73.146 C 274.597 72.916,274.289 72.727,274.078 72.727 C 273.868 72.727,273.696 72.614,273.696 72.476 C 273.696 72.338,273.632 72.288,273.555 72.365 C 273.478 72.442,273.293 72.337,273.142 72.132 C 272.992 71.927,272.789 71.756,272.691 71.751 C 272.593 71.747,272.283 71.616,272.002 71.461 C 271.708 71.298,271.553 71.277,271.637 71.412 C 271.727 71.558,271.656 71.598,271.447 71.518 C 271.264 71.448,271.114 71.298,271.114 71.185 C 271.114 71.073,271.017 71.040,270.898 71.114 C 270.780 71.187,270.683 71.144,270.683 71.019 C 270.683 70.893,270.611 70.811,270.522 70.836 C 270.433 70.862,270.135 70.757,269.859 70.605 C 269.584 70.452,269.221 70.380,269.053 70.445 C 268.884 70.509,268.747 70.468,268.747 70.354 C 268.747 70.239,268.601 70.145,268.424 70.145 C 268.246 70.145,268.101 70.038,268.101 69.907 C 268.101 69.776,267.959 69.723,267.785 69.790 C 267.612 69.857,267.411 69.817,267.340 69.702 C 267.269 69.587,267.121 69.548,267.010 69.617 C 266.900 69.685,266.689 69.663,266.541 69.568 C 265.506 68.905,264.646 68.870,249.008 68.858 L 233.244 68.847 233.244 101.990 M188.991 77.128 C 189.839 77.154,190.747 77.246,191.009 77.331 C 191.270 77.415,191.683 77.379,191.926 77.249 C 192.264 77.067,192.354 77.075,192.311 77.283 C 192.278 77.439,192.481 77.562,192.792 77.574 C 193.088 77.585,193.717 77.678,194.190 77.779 C 194.664 77.881,195.124 77.947,195.212 77.928 C 195.301 77.908,195.374 77.982,195.374 78.093 C 195.374 78.204,195.543 78.294,195.750 78.293 C 196.356 78.289,196.813 78.429,197.172 78.726 C 197.356 78.879,197.608 78.942,197.731 78.865 C 197.855 78.789,197.956 78.827,197.956 78.949 C 197.956 79.071,198.222 79.309,198.548 79.478 C 198.873 79.646,199.478 80.083,199.892 80.448 C 200.307 80.813,200.724 81.114,200.820 81.115 C 200.915 81.117,200.934 81.216,200.861 81.334 C 200.788 81.452,200.806 81.550,200.902 81.551 C 201.185 81.553,202.095 83.014,201.955 83.241 C 201.884 83.355,201.936 83.486,202.070 83.530 C 202.418 83.646,202.456 87.616,202.110 87.731 C 201.969 87.778,201.902 87.943,201.961 88.098 C 202.020 88.253,201.912 88.536,201.720 88.728 C 201.528 88.920,201.431 89.174,201.505 89.294 C 201.579 89.413,201.537 89.510,201.411 89.510 C 201.286 89.510,201.183 89.610,201.183 89.731 C 201.183 89.933,200.194 91.111,199.504 91.732 C 199.350 91.871,198.929 92.293,198.569 92.669 C 198.208 93.046,197.788 93.306,197.634 93.246 C 197.480 93.187,197.290 93.242,197.212 93.369 C 197.134 93.495,196.845 93.599,196.569 93.599 C 196.294 93.599,195.798 93.739,195.468 93.910 C 195.137 94.082,194.790 94.175,194.696 94.117 C 194.602 94.059,194.289 94.166,194.001 94.355 C 193.648 94.586,193.431 94.623,193.335 94.468 C 193.256 94.341,193.103 94.292,192.994 94.360 C 192.608 94.598,190.640 95.040,190.640 94.888 C 190.640 94.803,190.399 94.780,190.105 94.837 C 189.810 94.893,189.622 95.025,189.687 95.129 C 189.752 95.234,189.702 95.320,189.577 95.320 C 189.452 95.320,189.348 95.199,189.346 95.051 C 189.344 94.872,189.273 94.890,189.134 95.105 C 188.957 95.379,188.925 95.381,188.922 95.116 C 188.920 94.897,188.851 94.871,188.692 95.031 C 188.565 95.158,187.940 95.220,187.272 95.173 C 186.502 95.118,185.957 95.187,185.736 95.365 C 185.476 95.576,185.432 95.578,185.555 95.374 C 185.681 95.164,185.076 95.105,182.799 95.105 L 179.882 95.105 179.882 86.073 L 179.882 77.041 183.486 76.982 C 185.468 76.950,187.171 76.958,187.269 77.001 C 187.368 77.044,188.143 77.101,188.991 77.128 M249.702 79.609 C 249.783 79.741,251.747 79.802,254.879 79.771 C 257.654 79.743,259.925 79.777,259.925 79.846 C 259.925 79.915,260.046 79.981,260.194 79.992 C 261.825 80.116,264.183 80.724,264.810 81.182 C 264.953 81.286,265.171 81.309,265.295 81.232 C 265.418 81.156,265.519 81.185,265.519 81.297 C 265.519 81.410,265.858 81.565,266.272 81.643 C 266.686 81.720,267.025 81.882,267.025 82.002 C 267.025 82.122,267.123 82.160,267.242 82.086 C 267.361 82.013,267.517 82.104,267.588 82.289 C 267.659 82.474,267.813 82.625,267.930 82.625 C 268.047 82.625,268.448 82.843,268.821 83.109 C 269.194 83.375,269.563 83.593,269.640 83.593 C 269.717 83.593,270.069 83.884,270.420 84.239 C 270.772 84.594,271.751 85.548,272.595 86.360 C 273.439 87.171,274.187 88.066,274.258 88.349 C 274.329 88.631,274.464 88.814,274.558 88.756 C 274.652 88.698,274.837 88.958,274.968 89.335 C 275.099 89.711,275.468 90.461,275.788 91.002 C 276.108 91.543,276.383 92.082,276.400 92.200 C 276.417 92.318,276.504 92.630,276.593 92.893 C 276.682 93.156,276.736 93.436,276.713 93.515 C 276.690 93.594,276.776 93.723,276.904 93.802 C 277.032 93.881,277.158 94.206,277.184 94.525 C 277.211 94.844,277.284 95.105,277.347 95.106 C 277.409 95.106,277.479 95.452,277.501 95.873 C 277.522 96.295,277.622 96.755,277.722 96.895 C 277.821 97.035,277.886 97.682,277.866 98.332 C 277.845 98.983,277.902 99.613,277.992 99.731 C 278.224 100.035,278.220 103.452,277.988 104.064 C 277.881 104.344,277.868 104.572,277.958 104.572 C 278.048 104.572,278.122 104.766,278.122 105.003 C 278.122 105.239,278.035 105.433,277.928 105.433 C 277.822 105.433,277.778 105.724,277.830 106.079 C 277.882 106.434,277.832 106.724,277.720 106.724 C 277.607 106.724,277.571 107.003,277.639 107.344 C 277.707 107.685,277.695 108.032,277.612 108.115 C 277.529 108.198,277.457 108.331,277.452 108.410 C 277.420 108.892,276.819 111.011,276.580 111.484 C 276.423 111.795,276.355 112.109,276.430 112.184 C 276.504 112.258,276.441 112.318,276.290 112.318 C 276.132 112.318,276.070 112.458,276.143 112.649 C 276.214 112.833,276.136 113.032,275.968 113.096 C 275.801 113.160,275.611 113.355,275.544 113.530 C 275.465 113.734,275.517 113.799,275.688 113.712 C 275.835 113.638,275.785 113.716,275.578 113.886 C 275.371 114.056,275.202 114.270,275.202 114.363 C 275.202 114.455,275.051 114.640,274.867 114.775 C 274.683 114.910,274.507 115.194,274.475 115.408 C 274.444 115.621,274.280 115.883,274.111 115.990 C 273.942 116.097,273.885 116.186,273.985 116.188 C 274.085 116.190,273.819 116.500,273.394 116.877 C 272.968 117.253,272.620 117.645,272.620 117.746 C 272.620 118.075,271.785 118.838,270.789 119.420 C 270.255 119.732,269.872 120.042,269.938 120.109 C 270.005 120.175,269.764 120.333,269.403 120.459 C 269.012 120.595,268.740 120.845,268.730 121.075 C 268.720 121.289,268.668 121.353,268.612 121.219 C 268.475 120.885,267.460 121.356,267.457 121.755 C 267.456 121.926,267.322 121.996,267.133 121.923 C 266.955 121.855,266.810 121.899,266.810 122.021 C 266.810 122.142,266.707 122.178,266.581 122.100 C 266.454 122.022,266.205 122.137,266.027 122.356 C 265.841 122.584,265.762 122.616,265.842 122.431 C 265.919 122.254,265.789 122.327,265.554 122.594 C 265.257 122.931,265.092 122.997,265.016 122.809 C 264.943 122.628,264.848 122.613,264.729 122.761 C 264.631 122.884,264.406 122.983,264.228 122.983 C 264.051 122.983,263.589 123.096,263.203 123.235 C 262.816 123.374,262.468 123.468,262.429 123.443 C 262.390 123.419,262.222 123.504,262.056 123.632 C 261.890 123.760,261.440 123.844,261.057 123.819 C 260.674 123.794,260.414 123.859,260.479 123.964 C 260.544 124.069,260.276 124.156,259.884 124.158 C 259.492 124.159,256.382 124.216,252.972 124.284 C 249.563 124.352,246.537 124.349,246.248 124.276 L 245.724 124.145 245.724 101.771 L 245.724 79.398 247.647 79.398 C 248.705 79.398,249.630 79.493,249.702 79.609 M255.675 79.557 C 254.817 79.598,253.413 79.598,252.555 79.557 C 251.697 79.516,252.399 79.483,254.115 79.483 C 255.831 79.483,256.533 79.516,255.675 79.557 M75.955 114.880 L 75.955 142.187 75.435 141.941 C 75.150 141.806,74.951 141.639,74.995 141.568 C 75.038 141.498,74.667 141.263,74.170 141.047 C 73.672 140.830,73.036 140.476,72.756 140.259 C 72.476 140.043,72.161 139.919,72.056 139.983 C 71.952 140.048,71.867 139.997,71.867 139.871 C 71.867 139.745,71.479 139.487,71.006 139.297 C 70.533 139.108,70.145 138.861,70.145 138.748 C 70.145 138.636,70.048 138.604,69.930 138.677 C 69.812 138.750,69.715 138.722,69.715 138.615 C 69.715 138.507,69.303 138.237,68.800 138.015 C 68.297 137.792,67.097 137.100,66.132 136.476 C 65.167 135.852,64.327 135.342,64.267 135.342 C 64.206 135.342,63.419 134.906,62.518 134.373 C 61.618 133.841,60.794 133.405,60.688 133.405 C 60.582 133.405,60.198 133.154,59.834 132.848 C 59.470 132.542,59.172 132.349,59.172 132.419 C 59.172 132.489,58.770 132.256,58.279 131.900 C 57.788 131.544,57.255 131.253,57.095 131.253 C 56.935 131.253,56.805 131.168,56.805 131.064 C 56.805 130.960,56.490 130.747,56.105 130.591 C 55.447 130.323,54.940 130.040,52.272 128.453 C 51.672 128.096,51.248 127.927,51.331 128.077 C 51.413 128.226,51.220 128.080,50.902 127.752 C 50.584 127.424,50.233 127.212,50.121 127.281 C 50.010 127.349,49.919 127.297,49.919 127.165 C 49.919 127.033,49.835 126.977,49.732 127.040 C 49.629 127.104,49.266 126.909,48.925 126.608 C 48.584 126.307,47.870 125.844,47.337 125.580 C 45.602 124.719,43.358 123.426,43.283 123.242 C 43.242 123.143,42.616 122.764,41.892 122.398 C 41.168 122.033,40.184 121.487,39.707 121.185 C 39.229 120.884,38.817 120.677,38.791 120.727 C 38.766 120.777,38.548 120.649,38.307 120.443 C 38.067 120.237,37.870 120.131,37.870 120.208 C 37.870 120.284,37.700 120.203,37.493 120.027 C 37.286 119.851,36.633 119.433,36.041 119.098 C 35.449 118.762,34.916 118.415,34.855 118.325 C 34.795 118.235,34.481 118.096,34.157 118.015 C 33.834 117.933,33.616 117.791,33.673 117.699 C 33.730 117.607,33.582 117.481,33.344 117.418 C 33.106 117.356,32.841 117.285,32.755 117.260 C 32.669 117.234,32.209 116.946,31.733 116.619 C 31.257 116.291,30.530 115.882,30.119 115.710 C 29.065 115.270,28.744 114.842,29.217 114.511 C 30.226 113.805,32.847 112.325,33.095 112.322 C 33.250 112.320,33.315 112.219,33.240 112.098 C 33.165 111.977,33.184 111.903,33.281 111.934 C 33.565 112.024,34.857 111.426,34.857 111.204 C 34.857 111.093,34.943 111.055,35.048 111.120 C 35.153 111.185,35.359 111.094,35.505 110.917 C 35.651 110.741,35.871 110.597,35.993 110.597 C 36.115 110.597,36.533 110.355,36.921 110.059 C 37.309 109.763,37.729 109.521,37.855 109.521 C 37.982 109.521,38.085 109.424,38.085 109.306 C 38.085 109.188,38.222 109.091,38.390 109.091 C 38.557 109.091,38.727 109.018,38.766 108.930 C 38.806 108.841,39.274 108.554,39.806 108.293 C 40.339 108.031,41.017 107.675,41.313 107.502 C 41.608 107.328,41.996 107.130,42.173 107.060 C 42.351 106.991,42.786 106.746,43.141 106.516 C 43.497 106.286,44.102 105.937,44.486 105.741 C 44.871 105.545,45.186 105.304,45.186 105.207 C 45.186 105.110,45.524 104.908,45.939 104.758 C 46.353 104.608,46.692 104.403,46.692 104.301 C 46.692 104.200,46.765 104.162,46.855 104.217 C 46.944 104.273,47.501 103.989,48.092 103.588 C 48.683 103.186,49.290 102.856,49.442 102.854 C 49.594 102.852,49.773 102.706,49.841 102.529 C 49.909 102.353,50.037 102.253,50.126 102.308 C 50.215 102.363,50.859 102.059,51.556 101.632 C 53.277 100.579,54.748 99.722,57.612 98.104 C 58.943 97.352,60.032 96.660,60.032 96.566 C 60.032 96.473,60.125 96.396,60.238 96.396 C 60.351 96.396,60.956 96.089,61.583 95.715 C 62.209 95.340,63.254 94.754,63.905 94.412 C 64.556 94.070,65.718 93.458,66.487 93.053 C 67.257 92.647,68.007 92.150,68.155 91.948 C 68.303 91.745,68.424 91.662,68.424 91.762 C 68.424 91.862,68.593 91.795,68.800 91.612 C 69.008 91.429,70.048 90.815,71.114 90.246 C 72.179 89.678,73.098 89.159,73.158 89.093 C 73.217 89.027,73.749 88.731,74.341 88.435 C 74.933 88.139,75.449 87.824,75.489 87.735 C 75.892 86.828,75.955 90.489,75.955 114.880 M184.831 95.535 C 184.831 95.666,183.862 95.750,182.356 95.750 C 180.850 95.750,179.882 95.666,179.882 95.535 C 179.882 95.404,180.850 95.320,182.356 95.320 C 183.862 95.320,184.831 95.404,184.831 95.535 M190.855 105.215 C 190.855 105.284,191.218 105.353,191.662 105.368 C 193.349 105.424,194.993 105.636,195.233 105.829 C 195.369 105.938,195.885 106.015,196.378 106.000 C 197.132 105.975,197.235 106.020,197.023 106.280 C 196.821 106.530,196.841 106.564,197.128 106.456 C 197.323 106.383,197.549 106.389,197.630 106.470 C 197.711 106.551,197.841 106.620,197.920 106.624 C 197.999 106.628,198.281 106.753,198.548 106.901 C 198.814 107.049,199.032 107.114,199.032 107.046 C 199.032 106.978,199.244 107.120,199.503 107.361 C 199.762 107.602,200.079 107.800,200.208 107.800 C 200.337 107.800,200.754 108.085,201.135 108.433 C 201.517 108.782,201.829 109.025,201.829 108.973 C 201.829 108.922,202.119 109.184,202.474 109.555 C 202.829 109.927,203.120 110.312,203.120 110.411 C 203.120 110.510,203.410 111.063,203.765 111.640 C 204.120 112.217,204.411 112.848,204.411 113.042 C 204.411 113.236,204.519 113.394,204.651 113.394 C 204.791 113.394,204.849 113.617,204.790 113.926 C 204.734 114.218,204.760 114.413,204.847 114.359 C 204.934 114.305,205.015 114.671,205.026 115.173 C 205.068 116.988,205.111 117.268,205.351 117.282 C 205.485 117.291,205.401 117.373,205.164 117.466 C 204.837 117.595,204.733 117.835,204.732 118.473 C 204.732 119.012,204.638 119.293,204.471 119.260 C 204.321 119.231,204.263 119.345,204.334 119.529 C 204.402 119.705,204.350 119.849,204.219 119.849 C 204.088 119.849,203.981 120.059,203.981 120.316 C 203.981 120.572,203.919 120.721,203.844 120.646 C 203.681 120.482,202.772 121.592,202.856 121.852 C 202.889 121.951,202.826 121.978,202.717 121.911 C 202.609 121.843,202.462 121.939,202.391 122.124 C 202.320 122.308,202.182 122.409,202.085 122.349 C 201.987 122.289,201.771 122.428,201.605 122.658 C 201.439 122.888,201.131 123.077,200.921 123.077 C 200.710 123.077,200.538 123.220,200.538 123.396 C 200.538 123.652,199.969 123.938,199.247 124.045 C 199.188 124.053,198.929 124.178,198.671 124.321 C 198.414 124.464,198.027 124.608,197.811 124.642 C 197.595 124.676,197.282 124.788,197.115 124.892 C 196.949 124.996,196.493 125.069,196.102 125.054 C 195.711 125.039,195.341 125.108,195.280 125.206 C 195.219 125.305,194.925 125.359,194.626 125.326 C 194.327 125.293,194.083 125.340,194.083 125.429 C 194.083 125.518,193.671 125.582,193.168 125.571 C 192.665 125.560,192.119 125.680,191.954 125.836 C 191.789 125.993,191.595 126.041,191.523 125.944 C 191.357 125.717,190.612 125.715,190.264 125.941 C 190.099 126.047,189.995 126.010,189.995 125.844 C 189.995 125.673,189.919 125.648,189.791 125.777 C 189.670 125.898,187.581 125.957,184.680 125.921 L 179.774 125.859 179.832 115.543 L 179.890 105.227 184.350 105.168 C 186.804 105.136,189.271 105.105,189.833 105.099 C 190.395 105.093,190.855 105.145,190.855 105.215 M182.944 155.957 C 182.733 156.095,182.684 157.333,182.729 161.392 L 182.786 166.649 183.540 166.649 L 184.293 166.649 184.293 161.269 L 184.293 155.890 183.755 155.835 C 183.459 155.804,183.094 155.859,182.944 155.957 M208.069 161.269 L 208.069 166.784 208.768 166.716 L 209.467 166.649 209.531 165.089 C 209.596 163.489,209.756 163.264,210.449 163.805 C 210.634 163.949,210.849 164.236,210.926 164.443 C 211.004 164.650,211.168 164.820,211.290 164.820 C 211.412 164.820,211.512 164.968,211.512 165.149 C 211.512 165.331,211.664 165.537,211.851 165.609 C 212.037 165.681,212.277 165.968,212.383 166.248 C 212.578 166.759,213.221 166.913,213.968 166.626 C 214.431 166.448,214.396 166.171,213.825 165.483 C 213.558 165.162,213.147 164.628,212.910 164.297 C 212.673 163.965,212.161 163.348,211.772 162.926 L 211.064 162.159 212.605 160.715 C 214.217 159.205,214.338 158.794,213.166 158.797 C 212.616 158.799,212.192 159.075,211.034 160.187 L 209.587 161.574 209.527 158.732 L 209.467 155.890 208.768 155.823 L 208.069 155.755 208.069 161.269 M226.942 155.916 C 226.858 156.001,226.789 158.480,226.789 161.427 L 226.789 166.784 227.488 166.716 L 228.187 166.649 228.295 163.785 C 228.411 160.683,228.586 160.286,229.954 160.025 C 231.074 159.811,231.260 160.265,231.294 163.317 C 231.332 166.618,231.369 166.756,232.206 166.756 L 232.843 166.756 232.774 163.310 L 232.706 159.864 232.033 159.235 C 231.345 158.594,229.738 158.428,228.681 158.889 C 228.357 159.030,228.307 158.864,228.251 157.469 C 228.188 155.906,227.623 155.235,226.942 155.916 M246.593 156.628 C 246.059 157.624,247.406 158.411,248.091 157.503 C 248.431 157.052,248.434 156.977,248.121 156.612 C 247.677 156.093,246.874 156.101,246.593 156.628 M313.942 156.600 C 313.128 157.001,311.702 158.708,311.905 159.038 C 311.975 159.151,311.914 159.387,311.770 159.561 C 311.586 159.782,311.539 160.483,311.612 161.888 C 311.819 165.848,314.412 167.835,317.611 166.487 C 318.766 166.000,320.035 163.693,319.462 163.120 C 318.878 162.536,318.082 162.844,317.944 163.708 C 317.611 165.787,314.762 166.085,313.777 164.144 C 313.310 163.225,313.093 159.081,313.526 159.348 C 313.631 159.413,313.717 159.333,313.717 159.171 C 313.717 157.254,317.631 157.309,317.939 159.230 C 318.066 160.028,318.124 160.086,318.788 160.086 C 319.688 160.086,319.816 159.871,319.537 158.835 C 318.947 156.644,316.134 155.520,313.942 156.600 M171.923 161.108 C 171.927 167.282,171.700 166.759,174.366 166.744 C 177.898 166.725,178.806 166.136,178.978 163.756 C 179.065 162.553,179.029 162.428,178.417 161.816 C 178.057 161.456,177.835 161.162,177.922 161.162 C 178.138 161.162,178.806 159.731,178.805 159.272 C 178.797 157.052,177.844 156.430,174.449 156.429 L 171.920 156.428 171.923 161.108 M268.109 161.585 L 268.130 166.777 270.213 166.741 C 271.512 166.719,272.520 166.591,272.889 166.402 C 273.214 166.236,273.480 166.155,273.480 166.223 C 273.480 166.657,274.991 164.742,275.303 163.912 C 276.146 161.672,275.345 157.645,273.955 157.133 C 273.753 157.058,273.519 156.894,273.435 156.767 C 273.345 156.631,272.215 156.506,270.685 156.464 L 268.088 156.392 268.109 161.585 M289.977 157.002 C 289.898 157.081,289.833 157.517,289.833 157.970 C 289.833 158.769,289.810 158.795,289.080 158.795 C 288.387 158.795,288.327 158.846,288.327 159.441 C 288.327 160.035,288.387 160.086,289.080 160.086 L 289.833 160.086 289.833 162.967 C 289.833 166.663,290.034 166.968,292.361 166.793 C 293.230 166.727,293.039 165.511,292.146 165.425 L 291.447 165.358 291.387 162.722 L 291.326 160.086 291.978 160.086 C 292.559 160.086,292.630 160.016,292.630 159.441 C 292.630 158.867,292.559 158.795,291.985 158.795 C 291.378 158.795,291.339 158.745,291.339 157.957 C 291.339 157.026,290.524 156.455,289.977 157.002 M343.349 156.992 C 343.264 157.076,343.195 157.517,343.195 157.970 C 343.195 158.747,343.157 158.795,342.535 158.795 C 341.604 158.795,341.666 159.939,342.604 160.047 L 343.195 160.115 343.200 162.951 C 343.206 166.638,343.424 166.956,345.831 166.796 C 346.665 166.740,346.733 165.465,345.902 165.465 C 344.730 165.465,344.701 165.398,344.701 162.645 L 344.701 160.086 345.455 160.086 C 346.148 160.086,346.208 160.035,346.208 159.441 C 346.208 158.848,346.146 158.795,345.467 158.795 C 344.749 158.795,344.724 158.767,344.660 157.881 C 344.595 156.982,343.858 156.483,343.349 156.992 M176.764 158.151 C 177.887 159.084,176.925 160.527,175.081 160.675 L 173.642 160.790 173.642 159.225 L 173.642 157.660 175.042 157.773 C 175.813 157.835,176.587 158.005,176.764 158.151 M272.740 158.187 C 273.924 158.883,274.458 161.067,273.926 163.041 C 273.500 164.623,272.615 165.250,270.805 165.250 L 269.607 165.250 269.607 161.469 L 269.607 157.688 270.845 157.744 C 271.554 157.776,272.362 157.965,272.740 158.187 M189.834 158.889 C 189.243 159.216,188.274 160.316,188.274 160.660 C 188.273 160.798,188.162 160.948,188.027 160.993 C 187.736 161.090,187.557 163.744,187.841 163.744 C 187.947 163.744,187.999 163.923,187.957 164.141 C 187.915 164.360,188.114 164.811,188.400 165.143 C 188.685 165.475,188.919 165.826,188.919 165.922 C 188.919 166.975,192.513 167.061,193.653 166.035 C 196.948 163.069,193.601 156.806,189.834 158.889 M199.204 159.473 C 198.019 160.699,197.664 162.421,198.211 164.282 C 198.351 164.755,198.449 165.208,198.430 165.289 C 198.360 165.590,199.727 166.538,200.551 166.760 C 202.121 167.183,204.226 166.123,204.495 164.774 C 204.731 163.595,203.334 163.250,202.937 164.389 C 202.452 165.780,200.524 165.775,199.860 164.382 C 199.548 163.726,199.515 163.250,199.657 161.442 C 199.793 159.713,202.595 159.744,203.030 161.479 C 203.186 162.101,204.328 162.274,204.545 161.709 C 204.704 161.293,204.227 159.871,203.928 159.871 C 203.799 159.871,203.754 159.811,203.827 159.738 C 204.293 159.272,202.544 158.548,201.092 158.606 C 200.135 158.644,199.902 158.751,199.204 159.473 M218.368 158.893 C 216.496 159.951,216.180 164.344,217.856 166.020 C 219.620 167.783,222.984 166.692,223.250 164.271 C 223.339 163.465,221.945 163.564,221.659 164.384 C 220.707 167.114,217.632 164.571,218.422 161.708 C 219.003 159.604,221.840 159.654,221.840 161.767 C 221.840 162.039,222.447 162.106,222.996 161.896 C 223.374 161.751,223.273 160.813,222.772 159.817 C 222.503 159.283,222.357 159.185,221.918 159.244 C 221.842 159.254,221.704 159.140,221.612 158.990 C 221.356 158.576,219.050 158.507,218.368 158.893 M238.326 158.725 C 237.373 158.990,236.197 160.759,236.571 161.365 C 236.891 161.882,237.862 161.599,238.211 160.888 C 238.864 159.559,240.963 159.888,240.983 161.323 C 240.989 161.758,240.886 161.807,239.966 161.807 C 237.892 161.807,236.554 162.636,236.322 164.065 C 236.171 164.995,236.782 166.418,237.253 166.237 C 237.427 166.170,237.513 166.207,237.444 166.318 C 237.179 166.748,238.901 166.973,240.077 166.662 C 240.697 166.499,241.205 166.453,241.205 166.561 C 241.205 166.668,241.538 166.756,241.944 166.756 L 242.683 166.756 242.570 163.583 C 242.459 160.473,242.109 158.825,241.623 159.126 C 241.511 159.194,241.420 159.164,241.420 159.059 C 241.420 158.840,241.290 158.810,239.806 158.696 C 239.215 158.650,238.548 158.663,238.326 158.725 M254.466 158.731 C 254.383 158.814,253.810 158.887,253.193 158.892 L 252.071 158.903 252.071 162.776 L 252.071 166.649 252.878 166.671 L 253.685 166.693 253.685 163.835 L 253.685 160.976 254.310 160.531 C 256.065 159.281,256.568 160.002,256.502 163.671 C 256.466 165.706,256.520 166.543,256.681 166.443 C 256.808 166.365,256.912 166.403,256.912 166.528 C 256.912 166.768,257.536 166.834,258.024 166.646 C 258.657 166.403,258.307 160.159,257.622 159.474 C 256.851 158.703,254.943 158.254,254.466 158.731 M281.011 158.756 C 280.077 159.056,279.097 160.230,279.082 161.064 C 279.073 161.624,280.370 161.783,280.792 161.274 C 280.942 161.094,280.989 160.947,280.897 160.947 C 280.805 160.947,280.905 160.753,281.119 160.516 C 281.702 159.873,283.010 159.928,283.461 160.616 C 284.102 161.595,283.939 161.807,282.551 161.807 C 281.231 161.807,279.341 162.578,279.451 163.072 C 279.481 163.205,279.408 163.314,279.290 163.314 C 278.061 163.314,279.733 166.714,280.998 166.789 C 281.301 166.807,281.694 166.837,281.872 166.855 C 282.049 166.873,282.547 166.770,282.977 166.625 C 283.519 166.443,283.828 166.431,283.983 166.586 C 284.305 166.909,285.673 166.608,285.673 166.215 C 285.673 166.040,285.617 165.896,285.548 165.896 C 285.479 165.896,285.454 164.793,285.493 163.444 C 285.607 159.497,283.984 157.799,281.011 158.756 M297.687 158.841 C 296.592 159.226,295.698 160.494,295.988 161.250 C 296.217 161.847,297.579 161.612,297.579 160.975 C 297.579 160.043,299.495 159.748,300.208 160.570 C 300.986 161.467,300.736 161.734,298.998 161.866 C 296.580 162.049,295.858 162.698,295.858 164.689 C 295.858 166.347,297.546 167.249,299.545 166.658 C 300.204 166.464,300.616 166.436,300.756 166.577 C 300.874 166.694,301.239 166.758,301.569 166.719 L 302.169 166.649 302.118 163.664 C 302.068 160.723,301.925 159.870,301.398 159.368 C 300.608 158.616,298.983 158.385,297.687 158.841 M324.424 159.095 C 321.830 160.850,322.314 165.723,325.171 166.621 C 327.450 167.338,330.062 165.888,328.787 164.613 C 328.368 164.194,328.361 164.195,327.728 164.828 C 326.498 166.058,324.260 165.020,324.260 163.220 C 324.260 163.161,325.398 163.085,326.789 163.051 L 329.317 162.991 329.390 162.349 C 329.701 159.610,326.633 157.599,324.424 159.095 M334.965 158.891 C 334.640 159.061,334.373 159.109,334.373 158.997 C 334.373 158.886,334.032 158.795,333.615 158.795 L 332.857 158.795 332.916 162.722 L 332.975 166.649 333.620 166.649 L 334.266 166.649 334.373 163.935 C 334.500 160.752,334.793 160.086,336.068 160.086 C 337.235 160.086,337.371 160.460,337.379 163.686 L 337.386 166.533 337.939 166.672 C 338.851 166.901,338.928 166.600,338.854 163.142 C 338.784 159.903,338.346 158.442,337.584 158.913 C 337.491 158.970,337.355 158.919,337.280 158.799 C 337.082 158.477,335.648 158.535,334.965 158.891 M351.264 158.980 C 350.220 159.625,349.258 161.034,349.414 161.688 C 349.441 161.800,349.345 162.111,349.202 162.380 C 348.997 162.763,348.996 162.937,349.201 163.183 C 349.344 163.355,349.439 163.625,349.411 163.782 C 348.983 166.229,353.306 167.844,355.310 165.986 C 356.401 164.974,355.464 164.107,354.204 164.963 C 352.852 165.880,351.700 165.494,351.050 163.905 L 350.720 163.098 353.331 163.098 L 355.942 163.098 355.837 161.847 C 355.611 159.176,353.297 157.725,351.264 158.980 M361.317 158.915 C 361.049 159.103,360.839 159.150,360.839 159.022 C 360.839 158.897,360.498 158.795,360.081 158.795 L 359.323 158.795 359.382 162.722 L 359.441 166.649 360.140 166.670 L 360.839 166.692 360.839 164.032 C 360.839 161.062,361.284 160.086,362.638 160.086 C 363.144 160.086,363.206 160.004,363.206 159.333 C 363.206 158.466,362.258 158.256,361.317 158.915 M246.584 162.776 L 246.584 166.756 247.337 166.756 L 248.090 166.756 248.090 162.776 L 248.090 158.795 247.337 158.795 L 246.584 158.795 246.584 162.776 M192.770 160.847 C 193.512 161.692,193.671 162.982,193.171 164.110 C 192.891 164.742,192.361 165.399,192.361 165.115 C 192.361 165.024,192.245 165.065,192.103 165.207 C 191.404 165.907,190.004 165.263,189.622 164.067 C 188.708 161.207,191.015 158.848,192.770 160.847 M327.462 160.947 L 327.946 161.807 326.196 161.807 C 324.480 161.807,324.449 161.798,324.599 161.323 C 325.064 159.851,326.724 159.633,327.462 160.947 M353.542 160.362 C 353.866 160.611,354.384 161.425,354.384 161.686 C 354.384 161.753,353.609 161.807,352.663 161.807 C 350.721 161.807,350.772 161.847,351.425 160.839 C 351.946 160.035,352.851 159.831,353.542 160.362 M176.982 162.584 C 178.303 163.808,177.302 165.250,175.132 165.250 L 173.642 165.250 173.642 163.625 L 173.642 162.000 175.046 162.045 C 176.172 162.082,176.555 162.188,176.982 162.584 M240.949 163.905 C 240.828 165.364,238.485 166.040,237.989 164.760 C 237.614 163.795,238.462 163.165,240.196 163.120 C 241.015 163.098,241.016 163.099,240.949 163.905 M283.801 163.690 C 283.779 165.519,280.763 166.049,280.642 164.245 C 280.604 163.682,281.757 163.127,283.002 163.110 C 283.743 163.099,283.808 163.147,283.801 163.690 M300.592 163.728 C 300.592 164.890,298.878 165.802,297.901 165.161 C 296.651 164.342,297.711 163.114,299.677 163.103 C 300.546 163.099,300.592 163.130,300.592 163.728 " stroke="none" fill="#08699f" fill-rule="evenodd"></path><path id="path2" d="M338.085 77.609 C 338.292 77.663,338.631 77.663,338.838 77.609 C 339.045 77.555,338.876 77.511,338.462 77.511 C 338.047 77.511,337.878 77.555,338.085 77.609 M218.451 84.884 C 218.454 85.358,218.498 85.526,218.549 85.258 C 218.601 84.991,218.599 84.603,218.545 84.398 C 218.491 84.192,218.449 84.411,218.451 84.884 " stroke="none" fill="#0c6ca4" fill-rule="evenodd"></path><path id="path3" d="" stroke="none" fill="#106c9c" fill-rule="evenodd"></path><path id="path4" d="" stroke="none" fill="#106c9c" fill-rule="evenodd"></path></g></svg>